<mxfile host="app.diagrams.net" modified="2023-05-29T09:16:56.363Z" agent="Mozilla/5.0 (Windows NT 10.0; Win64; x64) AppleWebKit/537.36 (KHTML, like Gecko) Chrome/113.0.0.0 Safari/537.36" etag="vYRuzqtrwaZs4yJvegcj" version="21.3.2" type="device" pages="2">
  <diagram id="qHKav9AUPQHjn1QTsCgY" name="MCD">
    <mxGraphModel dx="2625" dy="2602" grid="1" gridSize="10" guides="1" tooltips="1" connect="1" arrows="1" fold="1" page="1" pageScale="1" pageWidth="827" pageHeight="1169" math="0" shadow="0">
      <root>
        <mxCell id="0" />
        <mxCell id="1" parent="0" />
        <mxCell id="LvVGkKCihhQ3ArhgQjUx-1" value="teacher" style="swimlane;fontStyle=0;childLayout=stackLayout;horizontal=1;startSize=26;fillColor=#d5e8d4;horizontalStack=0;resizeParent=1;resizeParentMax=0;resizeLast=0;collapsible=1;marginBottom=0;labelBackgroundColor=none;strokeColor=#82b366;" parent="1" vertex="1">
          <mxGeometry x="40" y="80" width="140" height="288" as="geometry" />
        </mxCell>
        <mxCell id="LvVGkKCihhQ3ArhgQjUx-2" value="teacherId : int" style="text;strokeColor=none;fillColor=none;align=left;verticalAlign=top;spacingLeft=4;spacingRight=4;overflow=hidden;rotatable=0;points=[[0,0.5],[1,0.5]];portConstraint=eastwest;fontStyle=0;fontColor=#000000;labelBackgroundColor=#FFFFFF;" parent="LvVGkKCihhQ3ArhgQjUx-1" vertex="1">
          <mxGeometry y="26" width="140" height="26" as="geometry" />
        </mxCell>
        <mxCell id="LvVGkKCihhQ3ArhgQjUx-3" value="teacherName : varchar" style="text;strokeColor=none;fillColor=none;align=left;verticalAlign=top;spacingLeft=4;spacingRight=4;overflow=hidden;rotatable=0;points=[[0,0.5],[1,0.5]];portConstraint=eastwest;" parent="LvVGkKCihhQ3ArhgQjUx-1" vertex="1">
          <mxGeometry y="52" width="140" height="28" as="geometry" />
        </mxCell>
        <mxCell id="LvVGkKCihhQ3ArhgQjUx-4" value="teacherFirstName : varchar" style="text;strokeColor=none;fillColor=none;align=left;verticalAlign=top;spacingLeft=4;spacingRight=4;overflow=hidden;rotatable=0;points=[[0,0.5],[1,0.5]];portConstraint=eastwest;" parent="LvVGkKCihhQ3ArhgQjUx-1" vertex="1">
          <mxGeometry y="80" width="140" height="26" as="geometry" />
        </mxCell>
        <mxCell id="LvVGkKCihhQ3ArhgQjUx-5" value="teacherEmail : varchar" style="text;strokeColor=none;fillColor=none;align=left;verticalAlign=top;spacingLeft=4;spacingRight=4;overflow=hidden;rotatable=0;points=[[0,0.5],[1,0.5]];portConstraint=eastwest;" parent="LvVGkKCihhQ3ArhgQjUx-1" vertex="1">
          <mxGeometry y="106" width="140" height="26" as="geometry" />
        </mxCell>
        <mxCell id="LvVGkKCihhQ3ArhgQjUx-6" value="teacherPassword : varchar" style="text;strokeColor=none;fillColor=none;align=left;verticalAlign=top;spacingLeft=4;spacingRight=4;overflow=hidden;rotatable=0;points=[[0,0.5],[1,0.5]];portConstraint=eastwest;" parent="LvVGkKCihhQ3ArhgQjUx-1" vertex="1">
          <mxGeometry y="132" width="140" height="26" as="geometry" />
        </mxCell>
        <mxCell id="LvVGkKCihhQ3ArhgQjUx-7" value="teacherAdress : varchar" style="text;strokeColor=none;fillColor=none;align=left;verticalAlign=top;spacingLeft=4;spacingRight=4;overflow=hidden;rotatable=0;points=[[0,0.5],[1,0.5]];portConstraint=eastwest;" parent="LvVGkKCihhQ3ArhgQjUx-1" vertex="1">
          <mxGeometry y="158" width="140" height="26" as="geometry" />
        </mxCell>
        <mxCell id="LvVGkKCihhQ3ArhgQjUx-8" value="teacherPostalCode : varchar" style="text;strokeColor=none;fillColor=none;align=left;verticalAlign=top;spacingLeft=4;spacingRight=4;overflow=hidden;rotatable=0;points=[[0,0.5],[1,0.5]];portConstraint=eastwest;" parent="LvVGkKCihhQ3ArhgQjUx-1" vertex="1">
          <mxGeometry y="184" width="140" height="26" as="geometry" />
        </mxCell>
        <mxCell id="LvVGkKCihhQ3ArhgQjUx-9" value="teacherPhoneNumber : varchar" style="text;strokeColor=none;fillColor=none;align=left;verticalAlign=top;spacingLeft=4;spacingRight=4;overflow=hidden;rotatable=0;points=[[0,0.5],[1,0.5]];portConstraint=eastwest;" parent="LvVGkKCihhQ3ArhgQjUx-1" vertex="1">
          <mxGeometry y="210" width="140" height="26" as="geometry" />
        </mxCell>
        <mxCell id="LvVGkKCihhQ3ArhgQjUx-10" value="teacherBirthDate : DateTime" style="text;strokeColor=none;fillColor=none;align=left;verticalAlign=top;spacingLeft=4;spacingRight=4;overflow=hidden;rotatable=0;points=[[0,0.5],[1,0.5]];portConstraint=eastwest;" parent="LvVGkKCihhQ3ArhgQjUx-1" vertex="1">
          <mxGeometry y="236" width="140" height="26" as="geometry" />
        </mxCell>
        <mxCell id="LvVGkKCihhQ3ArhgQjUx-11" value="teacherFunction : varcharÂ " style="text;strokeColor=none;fillColor=none;align=left;verticalAlign=top;spacingLeft=4;spacingRight=4;overflow=hidden;rotatable=0;points=[[0,0.5],[1,0.5]];portConstraint=eastwest;" parent="LvVGkKCihhQ3ArhgQjUx-1" vertex="1">
          <mxGeometry y="262" width="140" height="26" as="geometry" />
        </mxCell>
        <mxCell id="LvVGkKCihhQ3ArhgQjUx-12" value="cours" style="swimlane;fontStyle=0;childLayout=stackLayout;horizontal=1;startSize=26;fillColor=#d5e8d4;horizontalStack=0;resizeParent=1;resizeParentMax=0;resizeLast=0;collapsible=1;marginBottom=0;strokeColor=#82b366;" parent="1" vertex="1">
          <mxGeometry x="290" y="440" width="140" height="78" as="geometry" />
        </mxCell>
        <mxCell id="LvVGkKCihhQ3ArhgQjUx-13" value="coursId : int" style="text;strokeColor=none;fillColor=none;align=left;verticalAlign=top;spacingLeft=4;spacingRight=4;overflow=hidden;rotatable=0;points=[[0,0.5],[1,0.5]];portConstraint=eastwest;labelBackgroundColor=#FFFFFF;fontStyle=4" parent="LvVGkKCihhQ3ArhgQjUx-12" vertex="1">
          <mxGeometry y="26" width="140" height="26" as="geometry" />
        </mxCell>
        <mxCell id="LvVGkKCihhQ3ArhgQjUx-14" value="coursName : varchar" style="text;strokeColor=none;fillColor=none;align=left;verticalAlign=top;spacingLeft=4;spacingRight=4;overflow=hidden;rotatable=0;points=[[0,0.5],[1,0.5]];portConstraint=eastwest;" parent="LvVGkKCihhQ3ArhgQjUx-12" vertex="1">
          <mxGeometry y="52" width="140" height="26" as="geometry" />
        </mxCell>
        <mxCell id="LvVGkKCihhQ3ArhgQjUx-17" value="student" style="swimlane;fontStyle=0;childLayout=stackLayout;horizontal=1;startSize=26;fillColor=#d5e8d4;horizontalStack=0;resizeParent=1;resizeParentMax=0;resizeLast=0;collapsible=1;marginBottom=0;strokeColor=#82b366;" parent="1" vertex="1">
          <mxGeometry x="600" y="680" width="140" height="312" as="geometry" />
        </mxCell>
        <mxCell id="LvVGkKCihhQ3ArhgQjUx-18" value="studentId : int" style="text;strokeColor=none;fillColor=none;align=left;verticalAlign=top;spacingLeft=4;spacingRight=4;overflow=hidden;rotatable=0;points=[[0,0.5],[1,0.5]];portConstraint=eastwest;labelBackgroundColor=#FFFFFF;fontStyle=0" parent="LvVGkKCihhQ3ArhgQjUx-17" vertex="1">
          <mxGeometry y="26" width="140" height="26" as="geometry" />
        </mxCell>
        <mxCell id="LvVGkKCihhQ3ArhgQjUx-19" value="studentName: varchar" style="text;strokeColor=none;fillColor=none;align=left;verticalAlign=top;spacingLeft=4;spacingRight=4;overflow=hidden;rotatable=0;points=[[0,0.5],[1,0.5]];portConstraint=eastwest;" parent="LvVGkKCihhQ3ArhgQjUx-17" vertex="1">
          <mxGeometry y="52" width="140" height="26" as="geometry" />
        </mxCell>
        <mxCell id="LvVGkKCihhQ3ArhgQjUx-20" value="studentFirstName : varchar" style="text;strokeColor=none;fillColor=none;align=left;verticalAlign=top;spacingLeft=4;spacingRight=4;overflow=hidden;rotatable=0;points=[[0,0.5],[1,0.5]];portConstraint=eastwest;" parent="LvVGkKCihhQ3ArhgQjUx-17" vertex="1">
          <mxGeometry y="78" width="140" height="26" as="geometry" />
        </mxCell>
        <mxCell id="LvVGkKCihhQ3ArhgQjUx-21" value="studentEmail : varchar" style="text;strokeColor=none;fillColor=none;align=left;verticalAlign=top;spacingLeft=4;spacingRight=4;overflow=hidden;rotatable=0;points=[[0,0.5],[1,0.5]];portConstraint=eastwest;" parent="LvVGkKCihhQ3ArhgQjUx-17" vertex="1">
          <mxGeometry y="104" width="140" height="26" as="geometry" />
        </mxCell>
        <mxCell id="LvVGkKCihhQ3ArhgQjUx-22" value="studentPassword : varchar" style="text;strokeColor=none;fillColor=none;align=left;verticalAlign=top;spacingLeft=4;spacingRight=4;overflow=hidden;rotatable=0;points=[[0,0.5],[1,0.5]];portConstraint=eastwest;" parent="LvVGkKCihhQ3ArhgQjUx-17" vertex="1">
          <mxGeometry y="130" width="140" height="26" as="geometry" />
        </mxCell>
        <mxCell id="LvVGkKCihhQ3ArhgQjUx-23" value="studentPhoneNumber : varchar" style="text;strokeColor=none;fillColor=none;align=left;verticalAlign=top;spacingLeft=4;spacingRight=4;overflow=hidden;rotatable=0;points=[[0,0.5],[1,0.5]];portConstraint=eastwest;" parent="LvVGkKCihhQ3ArhgQjUx-17" vertex="1">
          <mxGeometry y="156" width="140" height="26" as="geometry" />
        </mxCell>
        <mxCell id="LvVGkKCihhQ3ArhgQjUx-24" value="studentBirthDate : DateTime" style="text;strokeColor=none;fillColor=none;align=left;verticalAlign=top;spacingLeft=4;spacingRight=4;overflow=hidden;rotatable=0;points=[[0,0.5],[1,0.5]];portConstraint=eastwest;" parent="LvVGkKCihhQ3ArhgQjUx-17" vertex="1">
          <mxGeometry y="182" width="140" height="26" as="geometry" />
        </mxCell>
        <mxCell id="LvVGkKCihhQ3ArhgQjUx-25" value="studentAdress : varchar" style="text;strokeColor=none;fillColor=none;align=left;verticalAlign=top;spacingLeft=4;spacingRight=4;overflow=hidden;rotatable=0;points=[[0,0.5],[1,0.5]];portConstraint=eastwest;" parent="LvVGkKCihhQ3ArhgQjUx-17" vertex="1">
          <mxGeometry y="208" width="140" height="26" as="geometry" />
        </mxCell>
        <mxCell id="LvVGkKCihhQ3ArhgQjUx-26" value="studentPostalCode : varchar&#xa;" style="text;strokeColor=none;fillColor=none;align=left;verticalAlign=top;spacingLeft=4;spacingRight=4;overflow=hidden;rotatable=0;points=[[0,0.5],[1,0.5]];portConstraint=eastwest;" parent="LvVGkKCihhQ3ArhgQjUx-17" vertex="1">
          <mxGeometry y="234" width="140" height="26" as="geometry" />
        </mxCell>
        <mxCell id="LvVGkKCihhQ3ArhgQjUx-27" value="studentFunction : varchar" style="text;strokeColor=none;fillColor=none;align=left;verticalAlign=top;spacingLeft=4;spacingRight=4;overflow=hidden;rotatable=0;points=[[0,0.5],[1,0.5]];portConstraint=eastwest;" parent="LvVGkKCihhQ3ArhgQjUx-17" vertex="1">
          <mxGeometry y="260" width="140" height="26" as="geometry" />
        </mxCell>
        <mxCell id="LvVGkKCihhQ3ArhgQjUx-28" value="studentResponsablePay : bool" style="text;strokeColor=none;fillColor=none;align=left;verticalAlign=top;spacingLeft=4;spacingRight=4;overflow=hidden;rotatable=0;points=[[0,0.5],[1,0.5]];portConstraint=eastwest;" parent="LvVGkKCihhQ3ArhgQjUx-17" vertex="1">
          <mxGeometry y="286" width="140" height="26" as="geometry" />
        </mxCell>
        <mxCell id="LvVGkKCihhQ3ArhgQjUx-30" value="" style="endArrow=none;html=1;rounded=0;fontColor=#000000;exitX=0.007;exitY=0.231;exitDx=0;exitDy=0;exitPerimeter=0;" parent="1" source="LvVGkKCihhQ3ArhgQjUx-21" target="LvVGkKCihhQ3ArhgQjUx-14" edge="1">
          <mxGeometry width="50" height="50" relative="1" as="geometry">
            <mxPoint x="180" y="770" as="sourcePoint" />
            <mxPoint x="230" y="720" as="targetPoint" />
            <Array as="points" />
          </mxGeometry>
        </mxCell>
        <mxCell id="LvVGkKCihhQ3ArhgQjUx-31" value="" style="endArrow=none;html=1;rounded=0;fontColor=#000000;entryX=0.5;entryY=0;entryDx=0;entryDy=0;" parent="1" target="LvVGkKCihhQ3ArhgQjUx-12" edge="1">
          <mxGeometry width="50" height="50" relative="1" as="geometry">
            <mxPoint x="180" y="230" as="sourcePoint" />
            <mxPoint x="230" y="180" as="targetPoint" />
          </mxGeometry>
        </mxCell>
        <mxCell id="LvVGkKCihhQ3ArhgQjUx-37" value="&lt;b&gt;1,N&lt;/b&gt;" style="text;html=1;strokeColor=none;fillColor=none;align=center;verticalAlign=middle;whiteSpace=wrap;rounded=0;" parent="1" vertex="1">
          <mxGeometry x="550" y="730" width="60" height="30" as="geometry" />
        </mxCell>
        <mxCell id="LvVGkKCihhQ3ArhgQjUx-38" value="&lt;b&gt;0,N&lt;/b&gt;" style="text;html=1;strokeColor=none;fillColor=none;align=center;verticalAlign=middle;whiteSpace=wrap;rounded=0;" parent="1" vertex="1">
          <mxGeometry x="320" y="518" width="60" height="30" as="geometry" />
        </mxCell>
        <mxCell id="LvVGkKCihhQ3ArhgQjUx-39" value="&lt;b&gt;1,1&lt;/b&gt;" style="text;html=1;strokeColor=none;fillColor=none;align=center;verticalAlign=middle;whiteSpace=wrap;rounded=0;" parent="1" vertex="1">
          <mxGeometry x="170" y="210" width="60" height="30" as="geometry" />
        </mxCell>
        <mxCell id="LvVGkKCihhQ3ArhgQjUx-40" value="&lt;b&gt;0,N&lt;/b&gt;" style="text;html=1;strokeColor=none;fillColor=none;align=center;verticalAlign=middle;whiteSpace=wrap;rounded=0;" parent="1" vertex="1">
          <mxGeometry x="280" y="409" width="60" height="30" as="geometry" />
        </mxCell>
        <mxCell id="LvVGkKCihhQ3ArhgQjUx-41" value="class" style="swimlane;fontStyle=0;childLayout=stackLayout;horizontal=1;startSize=26;fillColor=#d5e8d4;horizontalStack=0;resizeParent=1;resizeParentMax=0;resizeLast=0;collapsible=1;marginBottom=0;strokeColor=#82b366;" parent="1" vertex="1">
          <mxGeometry x="550" y="80" width="140" height="78" as="geometry" />
        </mxCell>
        <mxCell id="LvVGkKCihhQ3ArhgQjUx-42" value="classId : int" style="text;strokeColor=none;fillColor=none;align=left;verticalAlign=top;spacingLeft=4;spacingRight=4;overflow=hidden;rotatable=0;points=[[0,0.5],[1,0.5]];portConstraint=eastwest;fontColor=#000000;labelBackgroundColor=#FFFFFF;fontStyle=0" parent="LvVGkKCihhQ3ArhgQjUx-41" vertex="1">
          <mxGeometry y="26" width="140" height="26" as="geometry" />
        </mxCell>
        <mxCell id="LvVGkKCihhQ3ArhgQjUx-43" value="className : varchar" style="text;strokeColor=none;fillColor=none;align=left;verticalAlign=top;spacingLeft=4;spacingRight=4;overflow=hidden;rotatable=0;points=[[0,0.5],[1,0.5]];portConstraint=eastwest;" parent="LvVGkKCihhQ3ArhgQjUx-41" vertex="1">
          <mxGeometry y="52" width="140" height="26" as="geometry" />
        </mxCell>
        <mxCell id="LvVGkKCihhQ3ArhgQjUx-44" value="" style="endArrow=none;html=1;rounded=0;exitX=1;exitY=0.5;exitDx=0;exitDy=0;entryX=0;entryY=0.5;entryDx=0;entryDy=0;" parent="1" source="LvVGkKCihhQ3ArhgQjUx-3" target="LvVGkKCihhQ3ArhgQjUx-43" edge="1">
          <mxGeometry width="50" height="50" relative="1" as="geometry">
            <mxPoint x="390" y="220" as="sourcePoint" />
            <mxPoint x="440" y="170" as="targetPoint" />
          </mxGeometry>
        </mxCell>
        <mxCell id="LvVGkKCihhQ3ArhgQjUx-45" value="" style="endArrow=none;html=1;rounded=0;exitX=1.014;exitY=0.087;exitDx=0;exitDy=0;exitPerimeter=0;entryX=0.557;entryY=0.962;entryDx=0;entryDy=0;entryPerimeter=0;" parent="1" source="LvVGkKCihhQ3ArhgQjUx-12" target="LvVGkKCihhQ3ArhgQjUx-43" edge="1">
          <mxGeometry width="50" height="50" relative="1" as="geometry">
            <mxPoint x="590" y="220" as="sourcePoint" />
            <mxPoint x="640" y="170" as="targetPoint" />
          </mxGeometry>
        </mxCell>
        <mxCell id="LvVGkKCihhQ3ArhgQjUx-46" value="" style="endArrow=none;html=1;rounded=0;exitX=0.5;exitY=0;exitDx=0;exitDy=0;entryX=0.886;entryY=1;entryDx=0;entryDy=0;entryPerimeter=0;" parent="1" source="LvVGkKCihhQ3ArhgQjUx-17" target="LvVGkKCihhQ3ArhgQjUx-43" edge="1">
          <mxGeometry width="50" height="50" relative="1" as="geometry">
            <mxPoint x="640" y="210" as="sourcePoint" />
            <mxPoint x="690" y="160" as="targetPoint" />
          </mxGeometry>
        </mxCell>
        <mxCell id="LvVGkKCihhQ3ArhgQjUx-47" value="&lt;b&gt;0,1&lt;/b&gt;" style="text;html=1;strokeColor=none;fillColor=none;align=center;verticalAlign=middle;whiteSpace=wrap;rounded=0;" parent="1" vertex="1">
          <mxGeometry x="680" y="158" width="60" height="30" as="geometry" />
        </mxCell>
        <mxCell id="LvVGkKCihhQ3ArhgQjUx-48" value="&lt;br&gt;&lt;b&gt;1,N&lt;/b&gt;" style="text;html=1;strokeColor=none;fillColor=none;align=center;verticalAlign=middle;whiteSpace=wrap;rounded=0;" parent="1" vertex="1">
          <mxGeometry x="610" y="650" width="60" height="30" as="geometry" />
        </mxCell>
        <mxCell id="LvVGkKCihhQ3ArhgQjUx-49" value="&lt;b&gt;0,N&lt;/b&gt;" style="text;html=1;strokeColor=none;fillColor=none;align=center;verticalAlign=middle;whiteSpace=wrap;rounded=0;" parent="1" vertex="1">
          <mxGeometry x="500" y="148" width="60" height="30" as="geometry" />
        </mxCell>
        <mxCell id="LvVGkKCihhQ3ArhgQjUx-50" value="&lt;b&gt;1,N&lt;/b&gt;" style="text;html=1;strokeColor=none;fillColor=none;align=center;verticalAlign=middle;whiteSpace=wrap;rounded=0;" parent="1" vertex="1">
          <mxGeometry x="170" y="110" width="60" height="30" as="geometry" />
        </mxCell>
        <mxCell id="LvVGkKCihhQ3ArhgQjUx-56" value="&lt;b&gt;1,N&lt;/b&gt;" style="text;html=1;strokeColor=none;fillColor=none;align=center;verticalAlign=middle;whiteSpace=wrap;rounded=0;" parent="1" vertex="1">
          <mxGeometry x="390" y="409" width="60" height="30" as="geometry" />
        </mxCell>
        <mxCell id="LvVGkKCihhQ3ArhgQjUx-57" value="&lt;b&gt;1,1&lt;/b&gt;" style="text;html=1;strokeColor=none;fillColor=none;align=center;verticalAlign=middle;whiteSpace=wrap;rounded=0;" parent="1" vertex="1">
          <mxGeometry x="600" y="158" width="60" height="30" as="geometry" />
        </mxCell>
        <mxCell id="LvVGkKCihhQ3ArhgQjUx-59" value="interro" style="swimlane;fontStyle=0;childLayout=stackLayout;horizontal=1;startSize=26;fillColor=#d5e8d4;horizontalStack=0;resizeParent=1;resizeParentMax=0;resizeLast=0;collapsible=1;marginBottom=0;strokeColor=#82b366;" parent="1" vertex="1">
          <mxGeometry x="30" y="730" width="140" height="130" as="geometry" />
        </mxCell>
        <mxCell id="LvVGkKCihhQ3ArhgQjUx-60" value="" style="endArrow=none;html=1;rounded=0;fontColor=#FF0D0D;exitX=0.571;exitY=-0.038;exitDx=0;exitDy=0;exitPerimeter=0;entryX=0.021;entryY=-0.038;entryDx=0;entryDy=0;entryPerimeter=0;" parent="LvVGkKCihhQ3ArhgQjUx-59" target="LvVGkKCihhQ3ArhgQjUx-23" edge="1">
          <mxGeometry width="50" height="50" relative="1" as="geometry">
            <mxPoint x="140.00000000000006" y="104" as="sourcePoint" />
            <mxPoint x="560" y="104" as="targetPoint" />
          </mxGeometry>
        </mxCell>
        <mxCell id="LvVGkKCihhQ3ArhgQjUx-61" value="interroId : int" style="text;strokeColor=none;fillColor=none;align=left;verticalAlign=top;spacingLeft=4;spacingRight=4;overflow=hidden;rotatable=0;points=[[0,0.5],[1,0.5]];portConstraint=eastwest;labelBackgroundColor=#FFFFFF;" parent="LvVGkKCihhQ3ArhgQjUx-59" vertex="1">
          <mxGeometry y="26" width="140" height="26" as="geometry" />
        </mxCell>
        <mxCell id="LvVGkKCihhQ3ArhgQjUx-62" value="interroName : varchar" style="text;strokeColor=none;fillColor=none;align=left;verticalAlign=top;spacingLeft=4;spacingRight=4;overflow=hidden;rotatable=0;points=[[0,0.5],[1,0.5]];portConstraint=eastwest;" parent="LvVGkKCihhQ3ArhgQjUx-59" vertex="1">
          <mxGeometry y="52" width="140" height="26" as="geometry" />
        </mxCell>
        <mxCell id="LvVGkKCihhQ3ArhgQjUx-63" value="interroResultat : int" style="text;strokeColor=none;fillColor=none;align=left;verticalAlign=top;spacingLeft=4;spacingRight=4;overflow=hidden;rotatable=0;points=[[0,0.5],[1,0.5]];portConstraint=eastwest;" parent="LvVGkKCihhQ3ArhgQjUx-59" vertex="1">
          <mxGeometry y="78" width="140" height="26" as="geometry" />
        </mxCell>
        <mxCell id="LvVGkKCihhQ3ArhgQjUx-64" value="interroCotation : int" style="text;strokeColor=none;fillColor=none;align=left;verticalAlign=top;spacingLeft=4;spacingRight=4;overflow=hidden;rotatable=0;points=[[0,0.5],[1,0.5]];portConstraint=eastwest;" parent="LvVGkKCihhQ3ArhgQjUx-59" vertex="1">
          <mxGeometry y="104" width="140" height="26" as="geometry" />
        </mxCell>
        <mxCell id="LvVGkKCihhQ3ArhgQjUx-67" value="" style="endArrow=none;html=1;rounded=0;fontColor=#FF0D0D;exitX=0.571;exitY=0.008;exitDx=0;exitDy=0;exitPerimeter=0;" parent="1" source="LvVGkKCihhQ3ArhgQjUx-59" target="LvVGkKCihhQ3ArhgQjUx-11" edge="1">
          <mxGeometry width="50" height="50" relative="1" as="geometry">
            <mxPoint x="70" y="730" as="sourcePoint" />
            <mxPoint x="120" y="680" as="targetPoint" />
          </mxGeometry>
        </mxCell>
        <mxCell id="LvVGkKCihhQ3ArhgQjUx-69" value="&lt;br&gt;&lt;b&gt;1,1&lt;/b&gt;" style="text;html=1;strokeColor=none;fillColor=none;align=center;verticalAlign=middle;whiteSpace=wrap;rounded=0;" parent="1" vertex="1">
          <mxGeometry x="540" y="834" width="60" height="30" as="geometry" />
        </mxCell>
        <mxCell id="LvVGkKCihhQ3ArhgQjUx-70" value="&lt;b&gt;0,N&lt;/b&gt;" style="text;html=1;strokeColor=none;fillColor=none;align=center;verticalAlign=middle;whiteSpace=wrap;rounded=0;" parent="1" vertex="1">
          <mxGeometry x="170" y="806" width="60" height="30" as="geometry" />
        </mxCell>
        <mxCell id="LvVGkKCihhQ3ArhgQjUx-72" value="&lt;b&gt;0,N&lt;/b&gt;" style="text;html=1;strokeColor=none;fillColor=none;align=center;verticalAlign=middle;whiteSpace=wrap;rounded=0;" parent="1" vertex="1">
          <mxGeometry x="110" y="700" width="60" height="30" as="geometry" />
        </mxCell>
        <mxCell id="LvVGkKCihhQ3ArhgQjUx-73" value="&lt;b&gt;1,1&lt;/b&gt;" style="text;html=1;strokeColor=none;fillColor=none;align=center;verticalAlign=middle;whiteSpace=wrap;rounded=0;" parent="1" vertex="1">
          <mxGeometry x="50" y="368" width="60" height="30" as="geometry" />
        </mxCell>
        <mxCell id="LvVGkKCihhQ3ArhgQjUx-74" style="edgeStyle=orthogonalEdgeStyle;rounded=0;orthogonalLoop=1;jettySize=auto;html=1;entryX=0.5;entryY=0;entryDx=0;entryDy=0;fontColor=#FFFCFA;" parent="1" source="LvVGkKCihhQ3ArhgQjUx-75" target="LvVGkKCihhQ3ArhgQjUx-1" edge="1">
          <mxGeometry relative="1" as="geometry" />
        </mxCell>
        <mxCell id="LvVGkKCihhQ3ArhgQjUx-75" value="remark" style="swimlane;fontStyle=0;childLayout=stackLayout;horizontal=1;startSize=26;fillColor=#d5e8d4;horizontalStack=0;resizeParent=1;resizeParentMax=0;resizeLast=0;collapsible=1;marginBottom=0;strokeColor=#82b366;" parent="1" vertex="1">
          <mxGeometry x="940" y="-140" width="140" height="126" as="geometry" />
        </mxCell>
        <mxCell id="LvVGkKCihhQ3ArhgQjUx-76" value="remarkId : int" style="text;strokeColor=none;fillColor=none;align=left;verticalAlign=top;spacingLeft=4;spacingRight=4;overflow=hidden;rotatable=0;points=[[0,0.5],[1,0.5]];portConstraint=eastwest;labelBackgroundColor=#FFFFFF;fontStyle=0" parent="LvVGkKCihhQ3ArhgQjUx-75" vertex="1">
          <mxGeometry y="26" width="140" height="22" as="geometry" />
        </mxCell>
        <mxCell id="LvVGkKCihhQ3ArhgQjUx-77" value="remarkTitle : varchar" style="text;strokeColor=none;fillColor=none;align=left;verticalAlign=top;spacingLeft=4;spacingRight=4;overflow=hidden;rotatable=0;points=[[0,0.5],[1,0.5]];portConstraint=eastwest;" parent="LvVGkKCihhQ3ArhgQjUx-75" vertex="1">
          <mxGeometry y="48" width="140" height="26" as="geometry" />
        </mxCell>
        <mxCell id="LvVGkKCihhQ3ArhgQjUx-78" value="remarkContent : text" style="text;strokeColor=none;fillColor=none;align=left;verticalAlign=top;spacingLeft=4;spacingRight=4;overflow=hidden;rotatable=0;points=[[0,0.5],[1,0.5]];portConstraint=eastwest;" parent="LvVGkKCihhQ3ArhgQjUx-75" vertex="1">
          <mxGeometry y="74" width="140" height="26" as="geometry" />
        </mxCell>
        <mxCell id="LvVGkKCihhQ3ArhgQjUx-79" value="remarkDate : Datetime" style="text;strokeColor=none;fillColor=none;align=left;verticalAlign=top;spacingLeft=4;spacingRight=4;overflow=hidden;rotatable=0;points=[[0,0.5],[1,0.5]];portConstraint=eastwest;" parent="LvVGkKCihhQ3ArhgQjUx-75" vertex="1">
          <mxGeometry y="100" width="140" height="26" as="geometry" />
        </mxCell>
        <mxCell id="LvVGkKCihhQ3ArhgQjUx-83" style="edgeStyle=orthogonalEdgeStyle;rounded=0;orthogonalLoop=1;jettySize=auto;html=1;exitX=1;exitY=0.5;exitDx=0;exitDy=0;fontColor=#FFFCFA;" parent="1" source="LvVGkKCihhQ3ArhgQjUx-23" target="LvVGkKCihhQ3ArhgQjUx-79" edge="1">
          <mxGeometry relative="1" as="geometry" />
        </mxCell>
        <mxCell id="LvVGkKCihhQ3ArhgQjUx-85" value="&lt;b&gt;0,N&lt;/b&gt;" style="text;html=1;strokeColor=none;fillColor=none;align=center;verticalAlign=middle;whiteSpace=wrap;rounded=0;" parent="1" vertex="1">
          <mxGeometry x="890" y="-70" width="60" height="30" as="geometry" />
        </mxCell>
        <mxCell id="LvVGkKCihhQ3ArhgQjUx-86" value="&lt;b&gt;1,1&lt;/b&gt;" style="text;html=1;strokeColor=none;fillColor=none;align=center;verticalAlign=middle;whiteSpace=wrap;rounded=0;" parent="1" vertex="1">
          <mxGeometry x="110" y="50" width="60" height="30" as="geometry" />
        </mxCell>
        <mxCell id="LvVGkKCihhQ3ArhgQjUx-88" value="&lt;b&gt;0,N&lt;/b&gt;" style="text;html=1;strokeColor=none;fillColor=none;align=center;verticalAlign=middle;whiteSpace=wrap;rounded=0;" parent="1" vertex="1">
          <mxGeometry x="880" y="-20" width="60" height="30" as="geometry" />
        </mxCell>
        <mxCell id="LvVGkKCihhQ3ArhgQjUx-89" value="&lt;b&gt;1,1&lt;/b&gt;" style="text;html=1;strokeColor=none;fillColor=none;align=center;verticalAlign=middle;whiteSpace=wrap;rounded=0;" parent="1" vertex="1">
          <mxGeometry x="740" y="820" width="60" height="30" as="geometry" />
        </mxCell>
        <mxCell id="LvVGkKCihhQ3ArhgQjUx-90" value="parent" style="swimlane;fontStyle=0;childLayout=stackLayout;horizontal=1;startSize=26;fillColor=#d5e8d4;horizontalStack=0;resizeParent=1;resizeParentMax=0;resizeLast=0;collapsible=1;marginBottom=0;strokeColor=#82b366;" parent="1" vertex="1">
          <mxGeometry x="1270" y="1030" width="140" height="308" as="geometry" />
        </mxCell>
        <mxCell id="LvVGkKCihhQ3ArhgQjUx-91" value="parentId : int" style="text;strokeColor=none;fillColor=none;align=left;verticalAlign=top;spacingLeft=4;spacingRight=4;overflow=hidden;rotatable=0;points=[[0,0.5],[1,0.5]];portConstraint=eastwest;labelBackgroundColor=#FFFFFF;fontStyle=0" parent="LvVGkKCihhQ3ArhgQjUx-90" vertex="1">
          <mxGeometry y="26" width="140" height="26" as="geometry" />
        </mxCell>
        <mxCell id="LvVGkKCihhQ3ArhgQjUx-92" value="parentName : varchar" style="text;strokeColor=none;fillColor=none;align=left;verticalAlign=top;spacingLeft=4;spacingRight=4;overflow=hidden;rotatable=0;points=[[0,0.5],[1,0.5]];portConstraint=eastwest;" parent="LvVGkKCihhQ3ArhgQjUx-90" vertex="1">
          <mxGeometry y="52" width="140" height="26" as="geometry" />
        </mxCell>
        <mxCell id="LvVGkKCihhQ3ArhgQjUx-93" value="parentFirstName : varchar" style="text;strokeColor=none;fillColor=none;align=left;verticalAlign=top;spacingLeft=4;spacingRight=4;overflow=hidden;rotatable=0;points=[[0,0.5],[1,0.5]];portConstraint=eastwest;" parent="LvVGkKCihhQ3ArhgQjUx-90" vertex="1">
          <mxGeometry y="78" width="140" height="26" as="geometry" />
        </mxCell>
        <mxCell id="LvVGkKCihhQ3ArhgQjUx-94" value="parentEmail : varchar" style="text;strokeColor=none;fillColor=none;align=left;verticalAlign=top;spacingLeft=4;spacingRight=4;overflow=hidden;rotatable=0;points=[[0,0.5],[1,0.5]];portConstraint=eastwest;" parent="LvVGkKCihhQ3ArhgQjUx-90" vertex="1">
          <mxGeometry y="104" width="140" height="26" as="geometry" />
        </mxCell>
        <mxCell id="LvVGkKCihhQ3ArhgQjUx-95" value="parentPassword : varchar" style="text;strokeColor=none;fillColor=none;align=left;verticalAlign=top;spacingLeft=4;spacingRight=4;overflow=hidden;rotatable=0;points=[[0,0.5],[1,0.5]];portConstraint=eastwest;" parent="LvVGkKCihhQ3ArhgQjUx-90" vertex="1">
          <mxGeometry y="130" width="140" height="26" as="geometry" />
        </mxCell>
        <mxCell id="LvVGkKCihhQ3ArhgQjUx-96" value="parentAdress : varchar" style="text;strokeColor=none;fillColor=none;align=left;verticalAlign=top;spacingLeft=4;spacingRight=4;overflow=hidden;rotatable=0;points=[[0,0.5],[1,0.5]];portConstraint=eastwest;" parent="LvVGkKCihhQ3ArhgQjUx-90" vertex="1">
          <mxGeometry y="156" width="140" height="26" as="geometry" />
        </mxCell>
        <mxCell id="LvVGkKCihhQ3ArhgQjUx-97" value="parentPostalCode :varchar" style="text;strokeColor=none;fillColor=none;align=left;verticalAlign=top;spacingLeft=4;spacingRight=4;overflow=hidden;rotatable=0;points=[[0,0.5],[1,0.5]];portConstraint=eastwest;" parent="LvVGkKCihhQ3ArhgQjUx-90" vertex="1">
          <mxGeometry y="182" width="140" height="26" as="geometry" />
        </mxCell>
        <mxCell id="LvVGkKCihhQ3ArhgQjUx-98" value="parentPhoneNumber : varchar" style="text;strokeColor=none;fillColor=none;align=left;verticalAlign=top;spacingLeft=4;spacingRight=4;overflow=hidden;rotatable=0;points=[[0,0.5],[1,0.5]];portConstraint=eastwest;" parent="LvVGkKCihhQ3ArhgQjUx-90" vertex="1">
          <mxGeometry y="208" width="140" height="26" as="geometry" />
        </mxCell>
        <mxCell id="LvVGkKCihhQ3ArhgQjUx-99" value="parentBirthDate : DateTime" style="text;strokeColor=none;fillColor=none;align=left;verticalAlign=top;spacingLeft=4;spacingRight=4;overflow=hidden;rotatable=0;points=[[0,0.5],[1,0.5]];portConstraint=eastwest;" parent="LvVGkKCihhQ3ArhgQjUx-90" vertex="1">
          <mxGeometry y="234" width="140" height="26" as="geometry" />
        </mxCell>
        <mxCell id="LvVGkKCihhQ3ArhgQjUx-100" value="parentFunction : varcharÂ " style="text;strokeColor=none;fillColor=none;align=left;verticalAlign=top;spacingLeft=4;spacingRight=4;overflow=hidden;rotatable=0;points=[[0,0.5],[1,0.5]];portConstraint=eastwest;" parent="LvVGkKCihhQ3ArhgQjUx-90" vertex="1">
          <mxGeometry y="260" width="140" height="24" as="geometry" />
        </mxCell>
        <mxCell id="LvVGkKCihhQ3ArhgQjUx-101" value="parentResponsablePay : bool" style="text;strokeColor=none;fillColor=none;align=left;verticalAlign=top;spacingLeft=4;spacingRight=4;overflow=hidden;rotatable=0;points=[[0,0.5],[1,0.5]];portConstraint=eastwest;" parent="LvVGkKCihhQ3ArhgQjUx-90" vertex="1">
          <mxGeometry y="284" width="140" height="24" as="geometry" />
        </mxCell>
        <mxCell id="LvVGkKCihhQ3ArhgQjUx-102" style="edgeStyle=orthogonalEdgeStyle;rounded=0;orthogonalLoop=1;jettySize=auto;html=1;entryX=1;entryY=0.5;entryDx=0;entryDy=0;fontColor=#FFFCFA;" parent="1" source="LvVGkKCihhQ3ArhgQjUx-91" target="LvVGkKCihhQ3ArhgQjUx-27" edge="1">
          <mxGeometry relative="1" as="geometry" />
        </mxCell>
        <mxCell id="LvVGkKCihhQ3ArhgQjUx-103" value="&lt;b&gt;1,N&lt;/b&gt;" style="text;html=1;strokeColor=none;fillColor=none;align=center;verticalAlign=middle;whiteSpace=wrap;rounded=0;" parent="1" vertex="1">
          <mxGeometry x="730" y="960" width="60" height="20" as="geometry" />
        </mxCell>
        <mxCell id="LvVGkKCihhQ3ArhgQjUx-104" value="&lt;b&gt;1,N&lt;/b&gt;" style="text;html=1;strokeColor=none;fillColor=none;align=center;verticalAlign=middle;whiteSpace=wrap;rounded=0;" parent="1" vertex="1">
          <mxGeometry x="1211" y="1038" width="60" height="30" as="geometry" />
        </mxCell>
        <mxCell id="LvVGkKCihhQ3ArhgQjUx-105" style="edgeStyle=orthogonalEdgeStyle;rounded=0;orthogonalLoop=1;jettySize=auto;html=1;exitX=0.5;exitY=1;exitDx=0;exitDy=0;fontColor=#FFFCFA;" parent="1" source="LvVGkKCihhQ3ArhgQjUx-57" target="LvVGkKCihhQ3ArhgQjUx-57" edge="1">
          <mxGeometry relative="1" as="geometry" />
        </mxCell>
        <mxCell id="LvVGkKCihhQ3ArhgQjUx-110" value="infoImp" style="swimlane;fontStyle=0;childLayout=stackLayout;horizontal=1;startSize=26;fillColor=#d5e8d4;horizontalStack=0;resizeParent=1;resizeParentMax=0;resizeLast=0;collapsible=1;marginBottom=0;strokeColor=#82b366;" parent="1" vertex="1">
          <mxGeometry x="180" y="1642" width="140" height="130" as="geometry" />
        </mxCell>
        <mxCell id="LvVGkKCihhQ3ArhgQjUx-111" value="infoImpId : int" style="text;strokeColor=none;fillColor=none;align=left;verticalAlign=top;spacingLeft=4;spacingRight=4;overflow=hidden;rotatable=0;points=[[0,0.5],[1,0.5]];portConstraint=eastwest;fontStyle=0;labelBackgroundColor=#FFFFFF;" parent="LvVGkKCihhQ3ArhgQjUx-110" vertex="1">
          <mxGeometry y="26" width="140" height="26" as="geometry" />
        </mxCell>
        <mxCell id="LvVGkKCihhQ3ArhgQjUx-112" value="infoImpTitle : varcahar&#xa;" style="text;strokeColor=none;fillColor=none;align=left;verticalAlign=top;spacingLeft=4;spacingRight=4;overflow=hidden;rotatable=0;points=[[0,0.5],[1,0.5]];portConstraint=eastwest;" parent="LvVGkKCihhQ3ArhgQjUx-110" vertex="1">
          <mxGeometry y="52" width="140" height="26" as="geometry" />
        </mxCell>
        <mxCell id="LvVGkKCihhQ3ArhgQjUx-113" value="infoImpContent : text" style="text;strokeColor=none;fillColor=none;align=left;verticalAlign=top;spacingLeft=4;spacingRight=4;overflow=hidden;rotatable=0;points=[[0,0.5],[1,0.5]];portConstraint=eastwest;" parent="LvVGkKCihhQ3ArhgQjUx-110" vertex="1">
          <mxGeometry y="78" width="140" height="26" as="geometry" />
        </mxCell>
        <mxCell id="LvVGkKCihhQ3ArhgQjUx-114" value="infoImpDate :Datetime" style="text;strokeColor=none;fillColor=none;align=left;verticalAlign=top;spacingLeft=4;spacingRight=4;overflow=hidden;rotatable=0;points=[[0,0.5],[1,0.5]];portConstraint=eastwest;" parent="LvVGkKCihhQ3ArhgQjUx-110" vertex="1">
          <mxGeometry y="104" width="140" height="26" as="geometry" />
        </mxCell>
        <mxCell id="LvVGkKCihhQ3ArhgQjUx-117" value="secretary" style="swimlane;fontStyle=0;childLayout=stackLayout;horizontal=1;startSize=26;fillColor=#d5e8d4;horizontalStack=0;resizeParent=1;resizeParentMax=0;resizeLast=0;collapsible=1;marginBottom=0;strokeColor=#82b366;" parent="1" vertex="1">
          <mxGeometry x="30" y="1078" width="140" height="286" as="geometry" />
        </mxCell>
        <mxCell id="LvVGkKCihhQ3ArhgQjUx-118" value="secretaryId : int" style="text;strokeColor=none;fillColor=none;align=left;verticalAlign=top;spacingLeft=4;spacingRight=4;overflow=hidden;rotatable=0;points=[[0,0.5],[1,0.5]];portConstraint=eastwest;labelBackgroundColor=#FFFFFF;fontStyle=0" parent="LvVGkKCihhQ3ArhgQjUx-117" vertex="1">
          <mxGeometry y="26" width="140" height="26" as="geometry" />
        </mxCell>
        <mxCell id="LvVGkKCihhQ3ArhgQjUx-119" value="secretaryName : varchar" style="text;strokeColor=none;fillColor=none;align=left;verticalAlign=top;spacingLeft=4;spacingRight=4;overflow=hidden;rotatable=0;points=[[0,0.5],[1,0.5]];portConstraint=eastwest;" parent="LvVGkKCihhQ3ArhgQjUx-117" vertex="1">
          <mxGeometry y="52" width="140" height="26" as="geometry" />
        </mxCell>
        <mxCell id="LvVGkKCihhQ3ArhgQjUx-120" value="secretaryFirstName : varchar" style="text;strokeColor=none;fillColor=none;align=left;verticalAlign=top;spacingLeft=4;spacingRight=4;overflow=hidden;rotatable=0;points=[[0,0.5],[1,0.5]];portConstraint=eastwest;" parent="LvVGkKCihhQ3ArhgQjUx-117" vertex="1">
          <mxGeometry y="78" width="140" height="26" as="geometry" />
        </mxCell>
        <mxCell id="LvVGkKCihhQ3ArhgQjUx-121" value="secretaryEmail : varchar" style="text;strokeColor=none;fillColor=none;align=left;verticalAlign=top;spacingLeft=4;spacingRight=4;overflow=hidden;rotatable=0;points=[[0,0.5],[1,0.5]];portConstraint=eastwest;" parent="LvVGkKCihhQ3ArhgQjUx-117" vertex="1">
          <mxGeometry y="104" width="140" height="26" as="geometry" />
        </mxCell>
        <mxCell id="LvVGkKCihhQ3ArhgQjUx-122" value="secretaryPassword : varchar" style="text;strokeColor=none;fillColor=none;align=left;verticalAlign=top;spacingLeft=4;spacingRight=4;overflow=hidden;rotatable=0;points=[[0,0.5],[1,0.5]];portConstraint=eastwest;" parent="LvVGkKCihhQ3ArhgQjUx-117" vertex="1">
          <mxGeometry y="130" width="140" height="26" as="geometry" />
        </mxCell>
        <mxCell id="LvVGkKCihhQ3ArhgQjUx-123" value="secretaryAdress : varchar" style="text;strokeColor=none;fillColor=none;align=left;verticalAlign=top;spacingLeft=4;spacingRight=4;overflow=hidden;rotatable=0;points=[[0,0.5],[1,0.5]];portConstraint=eastwest;" parent="LvVGkKCihhQ3ArhgQjUx-117" vertex="1">
          <mxGeometry y="156" width="140" height="26" as="geometry" />
        </mxCell>
        <mxCell id="LvVGkKCihhQ3ArhgQjUx-124" value="secretaryPostalCode : varchar" style="text;strokeColor=none;fillColor=none;align=left;verticalAlign=top;spacingLeft=4;spacingRight=4;overflow=hidden;rotatable=0;points=[[0,0.5],[1,0.5]];portConstraint=eastwest;" parent="LvVGkKCihhQ3ArhgQjUx-117" vertex="1">
          <mxGeometry y="182" width="140" height="26" as="geometry" />
        </mxCell>
        <mxCell id="LvVGkKCihhQ3ArhgQjUx-125" value="secretaryPhoneNumber : varchar" style="text;strokeColor=none;fillColor=none;align=left;verticalAlign=top;spacingLeft=4;spacingRight=4;overflow=hidden;rotatable=0;points=[[0,0.5],[1,0.5]];portConstraint=eastwest;" parent="LvVGkKCihhQ3ArhgQjUx-117" vertex="1">
          <mxGeometry y="208" width="140" height="26" as="geometry" />
        </mxCell>
        <mxCell id="LvVGkKCihhQ3ArhgQjUx-126" value="secretaryBirthDate : DateTime" style="text;strokeColor=none;fillColor=none;align=left;verticalAlign=top;spacingLeft=4;spacingRight=4;overflow=hidden;rotatable=0;points=[[0,0.5],[1,0.5]];portConstraint=eastwest;" parent="LvVGkKCihhQ3ArhgQjUx-117" vertex="1">
          <mxGeometry y="234" width="140" height="26" as="geometry" />
        </mxCell>
        <mxCell id="LvVGkKCihhQ3ArhgQjUx-127" value="secretaryFunction : varcharÂ " style="text;strokeColor=none;fillColor=none;align=left;verticalAlign=top;spacingLeft=4;spacingRight=4;overflow=hidden;rotatable=0;points=[[0,0.5],[1,0.5]];portConstraint=eastwest;" parent="LvVGkKCihhQ3ArhgQjUx-117" vertex="1">
          <mxGeometry y="260" width="140" height="26" as="geometry" />
        </mxCell>
        <mxCell id="LvVGkKCihhQ3ArhgQjUx-128" value="facture" style="swimlane;fontStyle=0;childLayout=stackLayout;horizontal=1;startSize=26;fillColor=#d5e8d4;horizontalStack=0;resizeParent=1;resizeParentMax=0;resizeLast=0;collapsible=1;marginBottom=0;strokeColor=#82b366;" parent="1" vertex="1">
          <mxGeometry x="560" y="1330" width="140" height="234" as="geometry" />
        </mxCell>
        <mxCell id="LvVGkKCihhQ3ArhgQjUx-129" value="factureId : int" style="text;strokeColor=none;fillColor=none;align=left;verticalAlign=top;spacingLeft=4;spacingRight=4;overflow=hidden;rotatable=0;points=[[0,0.5],[1,0.5]];portConstraint=eastwest;labelBackgroundColor=#FFFFFF;fontStyle=0" parent="LvVGkKCihhQ3ArhgQjUx-128" vertex="1">
          <mxGeometry y="26" width="140" height="26" as="geometry" />
        </mxCell>
        <mxCell id="LvVGkKCihhQ3ArhgQjUx-130" value="factureNameDesti : varchar" style="text;strokeColor=none;fillColor=none;align=left;verticalAlign=top;spacingLeft=4;spacingRight=4;overflow=hidden;rotatable=0;points=[[0,0.5],[1,0.5]];portConstraint=eastwest;" parent="LvVGkKCihhQ3ArhgQjUx-128" vertex="1">
          <mxGeometry y="52" width="140" height="26" as="geometry" />
        </mxCell>
        <mxCell id="LvVGkKCihhQ3ArhgQjUx-131" value="factureFirstNameDesti : varchar" style="text;strokeColor=none;fillColor=none;align=left;verticalAlign=top;spacingLeft=4;spacingRight=4;overflow=hidden;rotatable=0;points=[[0,0.5],[1,0.5]];portConstraint=eastwest;" parent="LvVGkKCihhQ3ArhgQjUx-128" vertex="1">
          <mxGeometry y="78" width="140" height="26" as="geometry" />
        </mxCell>
        <mxCell id="LvVGkKCihhQ3ArhgQjUx-132" value="factureAdressDesti : varchar" style="text;strokeColor=none;fillColor=none;align=left;verticalAlign=top;spacingLeft=4;spacingRight=4;overflow=hidden;rotatable=0;points=[[0,0.5],[1,0.5]];portConstraint=eastwest;" parent="LvVGkKCihhQ3ArhgQjUx-128" vertex="1">
          <mxGeometry y="104" width="140" height="26" as="geometry" />
        </mxCell>
        <mxCell id="LvVGkKCihhQ3ArhgQjUx-133" value="facturePostalCodeDesti : int" style="text;strokeColor=none;fillColor=none;align=left;verticalAlign=top;spacingLeft=4;spacingRight=4;overflow=hidden;rotatable=0;points=[[0,0.5],[1,0.5]];portConstraint=eastwest;" parent="LvVGkKCihhQ3ArhgQjUx-128" vertex="1">
          <mxGeometry y="130" width="140" height="26" as="geometry" />
        </mxCell>
        <mxCell id="LvVGkKCihhQ3ArhgQjUx-134" value="factureCommunication : text" style="text;strokeColor=none;fillColor=none;align=left;verticalAlign=top;spacingLeft=4;spacingRight=4;overflow=hidden;rotatable=0;points=[[0,0.5],[1,0.5]];portConstraint=eastwest;" parent="LvVGkKCihhQ3ArhgQjUx-128" vertex="1">
          <mxGeometry y="156" width="140" height="26" as="geometry" />
        </mxCell>
        <mxCell id="LvVGkKCihhQ3ArhgQjUx-135" value="factureMontant : float" style="text;strokeColor=none;fillColor=none;align=left;verticalAlign=top;spacingLeft=4;spacingRight=4;overflow=hidden;rotatable=0;points=[[0,0.5],[1,0.5]];portConstraint=eastwest;" parent="LvVGkKCihhQ3ArhgQjUx-128" vertex="1">
          <mxGeometry y="182" width="140" height="26" as="geometry" />
        </mxCell>
        <mxCell id="LvVGkKCihhQ3ArhgQjUx-136" value="facturePaye : bool" style="text;strokeColor=none;fillColor=none;align=left;verticalAlign=top;spacingLeft=4;spacingRight=4;overflow=hidden;rotatable=0;points=[[0,0.5],[1,0.5]];portConstraint=eastwest;" parent="LvVGkKCihhQ3ArhgQjUx-128" vertex="1">
          <mxGeometry y="208" width="140" height="26" as="geometry" />
        </mxCell>
        <mxCell id="LvVGkKCihhQ3ArhgQjUx-140" style="edgeStyle=orthogonalEdgeStyle;rounded=0;orthogonalLoop=1;jettySize=auto;html=1;entryX=0;entryY=0.5;entryDx=0;entryDy=0;fontColor=#FFFCFA;" parent="1" source="LvVGkKCihhQ3ArhgQjUx-121" target="LvVGkKCihhQ3ArhgQjUx-132" edge="1">
          <mxGeometry relative="1" as="geometry" />
        </mxCell>
        <mxCell id="LvVGkKCihhQ3ArhgQjUx-141" value="&lt;b&gt;1,1&lt;/b&gt;" style="text;html=1;strokeColor=none;fillColor=none;align=center;verticalAlign=middle;whiteSpace=wrap;rounded=0;" parent="1" vertex="1">
          <mxGeometry x="160" y="1170" width="60" height="30" as="geometry" />
        </mxCell>
        <mxCell id="LvVGkKCihhQ3ArhgQjUx-142" value="&lt;b&gt;0,N&lt;/b&gt;" style="text;html=1;strokeColor=none;fillColor=none;align=center;verticalAlign=middle;whiteSpace=wrap;rounded=0;" parent="1" vertex="1">
          <mxGeometry x="500" y="1450" width="60" height="30" as="geometry" />
        </mxCell>
        <mxCell id="LvVGkKCihhQ3ArhgQjUx-143" style="edgeStyle=orthogonalEdgeStyle;rounded=0;orthogonalLoop=1;jettySize=auto;html=1;entryX=0.443;entryY=-0.001;entryDx=0;entryDy=0;entryPerimeter=0;fontColor=#FFFCFA;" parent="1" source="LvVGkKCihhQ3ArhgQjUx-27" target="LvVGkKCihhQ3ArhgQjUx-128" edge="1">
          <mxGeometry relative="1" as="geometry" />
        </mxCell>
        <mxCell id="LvVGkKCihhQ3ArhgQjUx-144" style="edgeStyle=orthogonalEdgeStyle;rounded=0;orthogonalLoop=1;jettySize=auto;html=1;entryX=1;entryY=0.5;entryDx=0;entryDy=0;fontColor=#FFFCFA;" parent="1" source="LvVGkKCihhQ3ArhgQjUx-98" target="LvVGkKCihhQ3ArhgQjUx-131" edge="1">
          <mxGeometry relative="1" as="geometry" />
        </mxCell>
        <mxCell id="LvVGkKCihhQ3ArhgQjUx-145" value="&lt;b&gt;0,N&lt;/b&gt;" style="text;html=1;strokeColor=none;fillColor=none;align=center;verticalAlign=middle;whiteSpace=wrap;rounded=0;" parent="1" vertex="1">
          <mxGeometry x="620" y="1299" width="60" height="30" as="geometry" />
        </mxCell>
        <mxCell id="LvVGkKCihhQ3ArhgQjUx-146" value="&lt;b&gt;1,1&lt;/b&gt;" style="text;html=1;strokeColor=none;fillColor=none;align=center;verticalAlign=middle;whiteSpace=wrap;rounded=0;" parent="1" vertex="1">
          <mxGeometry x="530" y="980" width="60" height="30" as="geometry" />
        </mxCell>
        <mxCell id="LvVGkKCihhQ3ArhgQjUx-149" value="&lt;b&gt;0,N&lt;/b&gt;" style="text;html=1;strokeColor=none;fillColor=none;align=center;verticalAlign=middle;whiteSpace=wrap;rounded=0;" parent="1" vertex="1">
          <mxGeometry x="690" y="1390" width="60" height="30" as="geometry" />
        </mxCell>
        <mxCell id="LvVGkKCihhQ3ArhgQjUx-150" value="&lt;b&gt;1,1&lt;/b&gt;" style="text;html=1;strokeColor=none;fillColor=none;align=center;verticalAlign=middle;whiteSpace=wrap;rounded=0;" parent="1" vertex="1">
          <mxGeometry x="1211" y="1254" width="60" height="30" as="geometry" />
        </mxCell>
        <mxCell id="LvVGkKCihhQ3ArhgQjUx-151" style="edgeStyle=orthogonalEdgeStyle;rounded=0;orthogonalLoop=1;jettySize=auto;html=1;entryX=0.5;entryY=0;entryDx=0;entryDy=0;" parent="1" source="LvVGkKCihhQ3ArhgQjUx-127" target="LvVGkKCihhQ3ArhgQjUx-110" edge="1">
          <mxGeometry relative="1" as="geometry" />
        </mxCell>
        <mxCell id="LvVGkKCihhQ3ArhgQjUx-152" value="&lt;b&gt;0,N&lt;/b&gt;" style="text;html=1;strokeColor=none;fillColor=none;align=center;verticalAlign=middle;whiteSpace=wrap;rounded=0;" parent="1" vertex="1">
          <mxGeometry x="190" y="1600" width="60" height="30" as="geometry" />
        </mxCell>
        <mxCell id="LvVGkKCihhQ3ArhgQjUx-153" value="&lt;b&gt;1,1&lt;/b&gt;" style="text;html=1;strokeColor=none;fillColor=none;align=center;verticalAlign=middle;whiteSpace=wrap;rounded=0;" parent="1" vertex="1">
          <mxGeometry x="160" y="1340" width="60" height="30" as="geometry" />
        </mxCell>
        <mxCell id="LvVGkKCihhQ3ArhgQjUx-154" style="edgeStyle=orthogonalEdgeStyle;rounded=0;orthogonalLoop=1;jettySize=auto;html=1;entryX=1;entryY=0.5;entryDx=0;entryDy=0;" parent="1" source="LvVGkKCihhQ3ArhgQjUx-155" edge="1">
          <mxGeometry relative="1" as="geometry">
            <Array as="points">
              <mxPoint x="1540" y="-10" />
              <mxPoint x="1080" y="-10" />
            </Array>
            <mxPoint x="1080" y="-1.0000000000002274" as="targetPoint" />
          </mxGeometry>
        </mxCell>
        <mxCell id="LvVGkKCihhQ3ArhgQjUx-155" value="educator" style="swimlane;fontStyle=0;childLayout=stackLayout;horizontal=1;startSize=26;fillColor=#d5e8d4;horizontalStack=0;resizeParent=1;resizeParentMax=0;resizeLast=0;collapsible=1;marginBottom=0;strokeColor=#82b366;" parent="1" vertex="1">
          <mxGeometry x="1470" y="1500" width="140" height="286" as="geometry" />
        </mxCell>
        <mxCell id="LvVGkKCihhQ3ArhgQjUx-156" value="educatorId : int" style="text;strokeColor=none;fillColor=none;align=left;verticalAlign=top;spacingLeft=4;spacingRight=4;overflow=hidden;rotatable=0;points=[[0,0.5],[1,0.5]];portConstraint=eastwest;labelBackgroundColor=#FFFFFF;" parent="LvVGkKCihhQ3ArhgQjUx-155" vertex="1">
          <mxGeometry y="26" width="140" height="26" as="geometry" />
        </mxCell>
        <mxCell id="LvVGkKCihhQ3ArhgQjUx-157" value="educatorName : varchar" style="text;strokeColor=none;fillColor=none;align=left;verticalAlign=top;spacingLeft=4;spacingRight=4;overflow=hidden;rotatable=0;points=[[0,0.5],[1,0.5]];portConstraint=eastwest;" parent="LvVGkKCihhQ3ArhgQjUx-155" vertex="1">
          <mxGeometry y="52" width="140" height="26" as="geometry" />
        </mxCell>
        <mxCell id="LvVGkKCihhQ3ArhgQjUx-158" value="educatorFirstName : varchar" style="text;strokeColor=none;fillColor=none;align=left;verticalAlign=top;spacingLeft=4;spacingRight=4;overflow=hidden;rotatable=0;points=[[0,0.5],[1,0.5]];portConstraint=eastwest;" parent="LvVGkKCihhQ3ArhgQjUx-155" vertex="1">
          <mxGeometry y="78" width="140" height="26" as="geometry" />
        </mxCell>
        <mxCell id="LvVGkKCihhQ3ArhgQjUx-159" value="educatorEmail : varchar" style="text;strokeColor=none;fillColor=none;align=left;verticalAlign=top;spacingLeft=4;spacingRight=4;overflow=hidden;rotatable=0;points=[[0,0.5],[1,0.5]];portConstraint=eastwest;" parent="LvVGkKCihhQ3ArhgQjUx-155" vertex="1">
          <mxGeometry y="104" width="140" height="26" as="geometry" />
        </mxCell>
        <mxCell id="LvVGkKCihhQ3ArhgQjUx-160" value="educatorPassword : varchar" style="text;strokeColor=none;fillColor=none;align=left;verticalAlign=top;spacingLeft=4;spacingRight=4;overflow=hidden;rotatable=0;points=[[0,0.5],[1,0.5]];portConstraint=eastwest;" parent="LvVGkKCihhQ3ArhgQjUx-155" vertex="1">
          <mxGeometry y="130" width="140" height="26" as="geometry" />
        </mxCell>
        <mxCell id="LvVGkKCihhQ3ArhgQjUx-161" value="educatorAdress : varchar" style="text;strokeColor=none;fillColor=none;align=left;verticalAlign=top;spacingLeft=4;spacingRight=4;overflow=hidden;rotatable=0;points=[[0,0.5],[1,0.5]];portConstraint=eastwest;" parent="LvVGkKCihhQ3ArhgQjUx-155" vertex="1">
          <mxGeometry y="156" width="140" height="26" as="geometry" />
        </mxCell>
        <mxCell id="LvVGkKCihhQ3ArhgQjUx-162" value="educatorPostalCode : varchar" style="text;strokeColor=none;fillColor=none;align=left;verticalAlign=top;spacingLeft=4;spacingRight=4;overflow=hidden;rotatable=0;points=[[0,0.5],[1,0.5]];portConstraint=eastwest;" parent="LvVGkKCihhQ3ArhgQjUx-155" vertex="1">
          <mxGeometry y="182" width="140" height="26" as="geometry" />
        </mxCell>
        <mxCell id="LvVGkKCihhQ3ArhgQjUx-163" value="educatorPhoneNumber : varchar" style="text;strokeColor=none;fillColor=none;align=left;verticalAlign=top;spacingLeft=4;spacingRight=4;overflow=hidden;rotatable=0;points=[[0,0.5],[1,0.5]];portConstraint=eastwest;" parent="LvVGkKCihhQ3ArhgQjUx-155" vertex="1">
          <mxGeometry y="208" width="140" height="26" as="geometry" />
        </mxCell>
        <mxCell id="LvVGkKCihhQ3ArhgQjUx-164" value="educatorBirthDate : DateTime" style="text;strokeColor=none;fillColor=none;align=left;verticalAlign=top;spacingLeft=4;spacingRight=4;overflow=hidden;rotatable=0;points=[[0,0.5],[1,0.5]];portConstraint=eastwest;" parent="LvVGkKCihhQ3ArhgQjUx-155" vertex="1">
          <mxGeometry y="234" width="140" height="26" as="geometry" />
        </mxCell>
        <mxCell id="LvVGkKCihhQ3ArhgQjUx-165" value="educatorFunction : varcharÂ " style="text;strokeColor=none;fillColor=none;align=left;verticalAlign=top;spacingLeft=4;spacingRight=4;overflow=hidden;rotatable=0;points=[[0,0.5],[1,0.5]];portConstraint=eastwest;" parent="LvVGkKCihhQ3ArhgQjUx-155" vertex="1">
          <mxGeometry y="260" width="140" height="26" as="geometry" />
        </mxCell>
        <mxCell id="LvVGkKCihhQ3ArhgQjUx-166" style="edgeStyle=orthogonalEdgeStyle;rounded=0;orthogonalLoop=1;jettySize=auto;html=1;exitX=0;exitY=0.5;exitDx=0;exitDy=0;" parent="1" source="LvVGkKCihhQ3ArhgQjUx-156" target="LvVGkKCihhQ3ArhgQjUx-112" edge="1">
          <mxGeometry relative="1" as="geometry" />
        </mxCell>
        <mxCell id="LvVGkKCihhQ3ArhgQjUx-167" value="&lt;b&gt;0,N&lt;/b&gt;" style="text;html=1;strokeColor=none;fillColor=none;align=center;verticalAlign=middle;whiteSpace=wrap;rounded=0;" parent="1" vertex="1">
          <mxGeometry x="320" y="1710" width="60" height="30" as="geometry" />
        </mxCell>
        <mxCell id="LvVGkKCihhQ3ArhgQjUx-168" value="&lt;b&gt;1,1&lt;/b&gt;" style="text;html=1;strokeColor=none;fillColor=none;align=center;verticalAlign=middle;whiteSpace=wrap;rounded=0;" parent="1" vertex="1">
          <mxGeometry x="1410" y="1510" width="60" height="30" as="geometry" />
        </mxCell>
        <mxCell id="LvVGkKCihhQ3ArhgQjUx-169" value="&lt;b&gt;0,N&lt;/b&gt;" style="text;html=1;strokeColor=none;fillColor=none;align=center;verticalAlign=middle;whiteSpace=wrap;rounded=0;" parent="1" vertex="1">
          <mxGeometry x="1080" y="-40" width="60" height="30" as="geometry" />
        </mxCell>
        <mxCell id="LvVGkKCihhQ3ArhgQjUx-170" value="&lt;b&gt;1,1&lt;/b&gt;" style="text;html=1;strokeColor=none;fillColor=none;align=center;verticalAlign=middle;whiteSpace=wrap;rounded=0;" parent="1" vertex="1">
          <mxGeometry x="1480" y="1460" width="60" height="30" as="geometry" />
        </mxCell>
        <mxCell id="LvVGkKCihhQ3ArhgQjUx-171" style="edgeStyle=orthogonalEdgeStyle;rounded=0;orthogonalLoop=1;jettySize=auto;html=1;" parent="1" source="LvVGkKCihhQ3ArhgQjUx-172" target="LvVGkKCihhQ3ArhgQjUx-24" edge="1">
          <mxGeometry relative="1" as="geometry">
            <Array as="points">
              <mxPoint x="1170" y="900" />
              <mxPoint x="740" y="900" />
            </Array>
          </mxGeometry>
        </mxCell>
        <mxCell id="LvVGkKCihhQ3ArhgQjUx-172" value="retard" style="swimlane;fontStyle=0;childLayout=stackLayout;horizontal=1;startSize=26;fillColor=#d5e8d4;horizontalStack=0;resizeParent=1;resizeParentMax=0;resizeLast=0;collapsible=1;marginBottom=0;labelBackgroundColor=none;strokeColor=#82b366;" parent="1" vertex="1">
          <mxGeometry x="1101" y="1740" width="140" height="156" as="geometry" />
        </mxCell>
        <mxCell id="LvVGkKCihhQ3ArhgQjUx-173" value="retardId : int" style="text;strokeColor=none;fillColor=none;align=left;verticalAlign=top;spacingLeft=4;spacingRight=4;overflow=hidden;rotatable=0;points=[[0,0.5],[1,0.5]];portConstraint=eastwest;fontStyle=0;labelBackgroundColor=#FFFFFF;" parent="LvVGkKCihhQ3ArhgQjUx-172" vertex="1">
          <mxGeometry y="26" width="140" height="26" as="geometry" />
        </mxCell>
        <mxCell id="LvVGkKCihhQ3ArhgQjUx-174" value="retardType : varchar" style="text;strokeColor=none;fillColor=none;align=left;verticalAlign=top;spacingLeft=4;spacingRight=4;overflow=hidden;rotatable=0;points=[[0,0.5],[1,0.5]];portConstraint=eastwest;" parent="LvVGkKCihhQ3ArhgQjUx-172" vertex="1">
          <mxGeometry y="52" width="140" height="26" as="geometry" />
        </mxCell>
        <mxCell id="LvVGkKCihhQ3ArhgQjUx-175" value="retardCause : varchar" style="text;strokeColor=none;fillColor=none;align=left;verticalAlign=top;spacingLeft=4;spacingRight=4;overflow=hidden;rotatable=0;points=[[0,0.5],[1,0.5]];portConstraint=eastwest;" parent="LvVGkKCihhQ3ArhgQjUx-172" vertex="1">
          <mxGeometry y="78" width="140" height="26" as="geometry" />
        </mxCell>
        <mxCell id="LvVGkKCihhQ3ArhgQjUx-176" value="retardSignature : varchar" style="text;strokeColor=none;fillColor=none;align=left;verticalAlign=top;spacingLeft=4;spacingRight=4;overflow=hidden;rotatable=0;points=[[0,0.5],[1,0.5]];portConstraint=eastwest;" parent="LvVGkKCihhQ3ArhgQjUx-172" vertex="1">
          <mxGeometry y="104" width="140" height="26" as="geometry" />
        </mxCell>
        <mxCell id="LvVGkKCihhQ3ArhgQjUx-177" value="retardDate : DateTime" style="text;strokeColor=none;fillColor=none;align=left;verticalAlign=top;spacingLeft=4;spacingRight=4;overflow=hidden;rotatable=0;points=[[0,0.5],[1,0.5]];portConstraint=eastwest;" parent="LvVGkKCihhQ3ArhgQjUx-172" vertex="1">
          <mxGeometry y="130" width="140" height="26" as="geometry" />
        </mxCell>
        <mxCell id="LvVGkKCihhQ3ArhgQjUx-180" style="edgeStyle=orthogonalEdgeStyle;rounded=0;orthogonalLoop=1;jettySize=auto;html=1;entryX=0;entryY=0.5;entryDx=0;entryDy=0;" parent="1" source="LvVGkKCihhQ3ArhgQjUx-173" target="LvVGkKCihhQ3ArhgQjUx-158" edge="1">
          <mxGeometry relative="1" as="geometry" />
        </mxCell>
        <mxCell id="LvVGkKCihhQ3ArhgQjUx-181" value="&lt;b&gt;1,1&lt;/b&gt;" style="text;html=1;strokeColor=none;fillColor=none;align=center;verticalAlign=middle;whiteSpace=wrap;rounded=0;" parent="1" vertex="1">
          <mxGeometry x="1410" y="1560" width="60" height="30" as="geometry" />
        </mxCell>
        <mxCell id="LvVGkKCihhQ3ArhgQjUx-182" value="&lt;b&gt;0,N&lt;/b&gt;" style="text;html=1;strokeColor=none;fillColor=none;align=center;verticalAlign=middle;whiteSpace=wrap;rounded=0;" parent="1" vertex="1">
          <mxGeometry x="1230" y="1782" width="60" height="30" as="geometry" />
        </mxCell>
        <mxCell id="LvVGkKCihhQ3ArhgQjUx-183" value="&lt;b&gt;1,1&lt;/b&gt;" style="text;html=1;strokeColor=none;fillColor=none;align=center;verticalAlign=middle;whiteSpace=wrap;rounded=0;" parent="1" vertex="1">
          <mxGeometry x="740" y="870" width="60" height="30" as="geometry" />
        </mxCell>
        <mxCell id="LvVGkKCihhQ3ArhgQjUx-184" value="&lt;b&gt;0,N&lt;/b&gt;" style="text;html=1;strokeColor=none;fillColor=none;align=center;verticalAlign=middle;whiteSpace=wrap;rounded=0;" parent="1" vertex="1">
          <mxGeometry x="1110" y="1710" width="60" height="30" as="geometry" />
        </mxCell>
        <mxCell id="LvVGkKCihhQ3ArhgQjUx-185" style="edgeStyle=orthogonalEdgeStyle;rounded=0;orthogonalLoop=1;jettySize=auto;html=1;fontColor=default;entryX=0.629;entryY=0.955;entryDx=0;entryDy=0;entryPerimeter=0;" parent="1" source="LvVGkKCihhQ3ArhgQjUx-186" target="LvVGkKCihhQ3ArhgQjUx-28" edge="1">
          <mxGeometry relative="1" as="geometry">
            <mxPoint x="690" y="1030" as="targetPoint" />
            <Array as="points">
              <mxPoint x="740" y="994" />
              <mxPoint x="690" y="994" />
              <mxPoint x="690" y="991" />
            </Array>
          </mxGeometry>
        </mxCell>
        <mxCell id="LvVGkKCihhQ3ArhgQjUx-186" value="absence" style="swimlane;fontStyle=0;childLayout=stackLayout;horizontal=1;startSize=26;fillColor=#d5e8d4;horizontalStack=0;resizeParent=1;resizeParentMax=0;resizeLast=0;collapsible=1;marginBottom=0;labelBackgroundColor=none;strokeColor=#82b366;" parent="1" vertex="1">
          <mxGeometry x="710" y="1830" width="140" height="182" as="geometry" />
        </mxCell>
        <mxCell id="LvVGkKCihhQ3ArhgQjUx-187" value="absenceId : int" style="text;strokeColor=none;fillColor=none;align=left;verticalAlign=top;spacingLeft=4;spacingRight=4;overflow=hidden;rotatable=0;points=[[0,0.5],[1,0.5]];portConstraint=eastwest;fontStyle=0;labelBackgroundColor=#FFFFFF;" parent="LvVGkKCihhQ3ArhgQjUx-186" vertex="1">
          <mxGeometry y="26" width="140" height="26" as="geometry" />
        </mxCell>
        <mxCell id="LvVGkKCihhQ3ArhgQjUx-188" value="absenceType : varchar" style="text;strokeColor=none;fillColor=none;align=left;verticalAlign=top;spacingLeft=4;spacingRight=4;overflow=hidden;rotatable=0;points=[[0,0.5],[1,0.5]];portConstraint=eastwest;" parent="LvVGkKCihhQ3ArhgQjUx-186" vertex="1">
          <mxGeometry y="52" width="140" height="26" as="geometry" />
        </mxCell>
        <mxCell id="LvVGkKCihhQ3ArhgQjUx-189" value="absenceCause : varchar" style="text;strokeColor=none;fillColor=none;align=left;verticalAlign=top;spacingLeft=4;spacingRight=4;overflow=hidden;rotatable=0;points=[[0,0.5],[1,0.5]];portConstraint=eastwest;" parent="LvVGkKCihhQ3ArhgQjUx-186" vertex="1">
          <mxGeometry y="78" width="140" height="26" as="geometry" />
        </mxCell>
        <mxCell id="LvVGkKCihhQ3ArhgQjUx-190" value="absenceSignature : varchar" style="text;strokeColor=none;fillColor=none;align=left;verticalAlign=top;spacingLeft=4;spacingRight=4;overflow=hidden;rotatable=0;points=[[0,0.5],[1,0.5]];portConstraint=eastwest;" parent="LvVGkKCihhQ3ArhgQjUx-186" vertex="1">
          <mxGeometry y="104" width="140" height="26" as="geometry" />
        </mxCell>
        <mxCell id="LvVGkKCihhQ3ArhgQjUx-191" value="absenceDateDebut : DateTime" style="text;strokeColor=none;fillColor=none;align=left;verticalAlign=top;spacingLeft=4;spacingRight=4;overflow=hidden;rotatable=0;points=[[0,0.5],[1,0.5]];portConstraint=eastwest;" parent="LvVGkKCihhQ3ArhgQjUx-186" vertex="1">
          <mxGeometry y="130" width="140" height="26" as="geometry" />
        </mxCell>
        <mxCell id="LvVGkKCihhQ3ArhgQjUx-192" value="absenceDateFin : DateTime" style="text;strokeColor=none;fillColor=none;align=left;verticalAlign=top;spacingLeft=4;spacingRight=4;overflow=hidden;rotatable=0;points=[[0,0.5],[1,0.5]];portConstraint=eastwest;" parent="LvVGkKCihhQ3ArhgQjUx-186" vertex="1">
          <mxGeometry y="156" width="140" height="26" as="geometry" />
        </mxCell>
        <mxCell id="LvVGkKCihhQ3ArhgQjUx-195" style="edgeStyle=orthogonalEdgeStyle;rounded=0;orthogonalLoop=1;jettySize=auto;html=1;entryX=1;entryY=0.5;entryDx=0;entryDy=0;exitX=1;exitY=0.5;exitDx=0;exitDy=0;" parent="1" source="LvVGkKCihhQ3ArhgQjUx-191" target="LvVGkKCihhQ3ArhgQjUx-165" edge="1">
          <mxGeometry relative="1" as="geometry">
            <mxPoint x="1577.5199999999995" y="1838.13" as="targetPoint" />
            <mxPoint x="850" y="2025" as="sourcePoint" />
            <Array as="points">
              <mxPoint x="851" y="2000" />
              <mxPoint x="1630" y="2000" />
              <mxPoint x="1630" y="1773" />
            </Array>
          </mxGeometry>
        </mxCell>
        <mxCell id="LvVGkKCihhQ3ArhgQjUx-196" value="&lt;b&gt;0,N&lt;/b&gt;" style="text;html=1;strokeColor=none;fillColor=none;align=center;verticalAlign=middle;whiteSpace=wrap;rounded=0;" parent="1" vertex="1">
          <mxGeometry x="850" y="1970" width="60" height="30" as="geometry" />
        </mxCell>
        <mxCell id="LvVGkKCihhQ3ArhgQjUx-197" value="&lt;b&gt;1,1&lt;/b&gt;" style="text;html=1;strokeColor=none;fillColor=none;align=center;verticalAlign=middle;whiteSpace=wrap;rounded=0;" parent="1" vertex="1">
          <mxGeometry x="1610" y="1770" width="60" height="30" as="geometry" />
        </mxCell>
        <mxCell id="LvVGkKCihhQ3ArhgQjUx-198" value="&lt;b&gt;1,1&lt;/b&gt;" style="text;html=1;strokeColor=none;fillColor=none;align=center;verticalAlign=middle;whiteSpace=wrap;rounded=0;" parent="1" vertex="1">
          <mxGeometry x="680" y="1000" width="60" height="30" as="geometry" />
        </mxCell>
        <mxCell id="LvVGkKCihhQ3ArhgQjUx-199" value="&lt;b&gt;0,N&lt;/b&gt;" style="text;html=1;strokeColor=none;fillColor=none;align=center;verticalAlign=middle;whiteSpace=wrap;rounded=0;" parent="1" vertex="1">
          <mxGeometry x="730" y="1800" width="60" height="30" as="geometry" />
        </mxCell>
        <mxCell id="1HK2IZecnvWaZ_PLjyRD-1" value="Ecrit" style="rounded=1;whiteSpace=wrap;html=1;labelBackgroundColor=#FFFCFA;strokeColor=default;fontColor=#000000;" vertex="1" parent="1">
          <mxGeometry x="420" y="-107" width="120" height="60" as="geometry" />
        </mxCell>
        <mxCell id="1HK2IZecnvWaZ_PLjyRD-2" value="Ecrit" style="rounded=1;whiteSpace=wrap;html=1;labelBackgroundColor=#FFFCFA;strokeColor=default;fontColor=#000000;" vertex="1" parent="1">
          <mxGeometry x="1480" y="700" width="120" height="60" as="geometry" />
        </mxCell>
        <mxCell id="1HK2IZecnvWaZ_PLjyRD-3" value="ReÃ§oit" style="rounded=1;whiteSpace=wrap;html=1;labelBackgroundColor=#FFFCFA;strokeColor=default;fontColor=#000000;" vertex="1" parent="1">
          <mxGeometry x="790" y="320" width="120" height="60" as="geometry" />
        </mxCell>
        <mxCell id="1HK2IZecnvWaZ_PLjyRD-4" value="inscrit" style="rounded=1;whiteSpace=wrap;html=1;" vertex="1" parent="1">
          <mxGeometry x="620" y="439" width="120" height="60" as="geometry" />
        </mxCell>
        <mxCell id="1UEvZVWZrx6rxN0RZ7-R-1" value="contient" style="rounded=1;whiteSpace=wrap;html=1;" vertex="1" parent="1">
          <mxGeometry x="460" y="299" width="120" height="60" as="geometry" />
        </mxCell>
        <mxCell id="1UEvZVWZrx6rxN0RZ7-R-2" value="Suit" style="rounded=1;whiteSpace=wrap;html=1;" vertex="1" parent="1">
          <mxGeometry x="400" y="590" width="120" height="60" as="geometry" />
        </mxCell>
        <mxCell id="1UEvZVWZrx6rxN0RZ7-R-3" value="Enseigne" style="rounded=1;whiteSpace=wrap;html=1;" vertex="1" parent="1">
          <mxGeometry x="310" y="110" width="120" height="60" as="geometry" />
        </mxCell>
        <mxCell id="1UEvZVWZrx6rxN0RZ7-R-4" value="Enseigne" style="rounded=1;whiteSpace=wrap;html=1;" vertex="1" parent="1">
          <mxGeometry x="220" y="299" width="120" height="60" as="geometry" />
        </mxCell>
        <mxCell id="1UEvZVWZrx6rxN0RZ7-R-5" value="Donne" style="rounded=1;whiteSpace=wrap;html=1;" vertex="1" parent="1">
          <mxGeometry x="50" y="510" width="120" height="60" as="geometry" />
        </mxCell>
        <mxCell id="1UEvZVWZrx6rxN0RZ7-R-6" value="Fait" style="rounded=1;whiteSpace=wrap;html=1;" vertex="1" parent="1">
          <mxGeometry x="310" y="800" width="120" height="60" as="geometry" />
        </mxCell>
        <mxCell id="1UEvZVWZrx6rxN0RZ7-R-7" value="est respondable" style="rounded=1;whiteSpace=wrap;html=1;" vertex="1" parent="1">
          <mxGeometry x="950" y="985" width="120" height="60" as="geometry" />
        </mxCell>
        <mxCell id="1UEvZVWZrx6rxN0RZ7-R-9" value="Envoie" style="rounded=1;whiteSpace=wrap;html=1;" vertex="1" parent="1">
          <mxGeometry x="310" y="1278" width="120" height="60" as="geometry" />
        </mxCell>
        <mxCell id="1UEvZVWZrx6rxN0RZ7-R-10" value="Ajoute" style="rounded=1;whiteSpace=wrap;html=1;" vertex="1" parent="1">
          <mxGeometry x="190" y="1466" width="120" height="60" as="geometry" />
        </mxCell>
        <mxCell id="1UEvZVWZrx6rxN0RZ7-R-11" value="Ajoute" style="rounded=1;whiteSpace=wrap;html=1;" vertex="1" parent="1">
          <mxGeometry x="840" y="1582" width="120" height="60" as="geometry" />
        </mxCell>
        <mxCell id="1UEvZVWZrx6rxN0RZ7-R-12" value="Paye" style="rounded=1;whiteSpace=wrap;html=1;" vertex="1" parent="1">
          <mxGeometry x="540" y="1134" width="120" height="60" as="geometry" />
        </mxCell>
        <mxCell id="1UEvZVWZrx6rxN0RZ7-R-13" value="Paye" style="rounded=1;whiteSpace=wrap;html=1;" vertex="1" parent="1">
          <mxGeometry x="930" y="1290" width="120" height="60" as="geometry" />
        </mxCell>
        <mxCell id="1UEvZVWZrx6rxN0RZ7-R-14" value="Ajoute" style="rounded=1;whiteSpace=wrap;html=1;" vertex="1" parent="1">
          <mxGeometry x="1300" y="1634" width="120" height="60" as="geometry" />
        </mxCell>
        <mxCell id="1UEvZVWZrx6rxN0RZ7-R-15" value="Ajoute" style="rounded=1;whiteSpace=wrap;html=1;" vertex="1" parent="1">
          <mxGeometry x="1170" y="1969" width="120" height="60" as="geometry" />
        </mxCell>
        <mxCell id="1UEvZVWZrx6rxN0RZ7-R-16" value="ReÃ§ois" style="rounded=1;whiteSpace=wrap;html=1;" vertex="1" parent="1">
          <mxGeometry x="690" y="1221" width="120" height="60" as="geometry" />
        </mxCell>
        <mxCell id="1UEvZVWZrx6rxN0RZ7-R-17" value="ReÃ§ois" style="rounded=1;whiteSpace=wrap;html=1;" vertex="1" parent="1">
          <mxGeometry x="1101" y="1126" width="120" height="60" as="geometry" />
        </mxCell>
      </root>
    </mxGraphModel>
  </diagram>
  <diagram id="SEDM5owI3xvC4W38fCW1" name="MLD">
    <mxGraphModel dx="2333" dy="2442" grid="1" gridSize="10" guides="1" tooltips="1" connect="1" arrows="1" fold="1" page="1" pageScale="1" pageWidth="827" pageHeight="1169" math="0" shadow="0">
      <root>
        <mxCell id="0" />
        <mxCell id="1" parent="0" />
        <mxCell id="VQvP7sinkjEN94FzhtHF-1" value="teacher" style="swimlane;fontStyle=0;childLayout=stackLayout;horizontal=1;startSize=26;fillColor=#d5e8d4;horizontalStack=0;resizeParent=1;resizeParentMax=0;resizeLast=0;collapsible=1;marginBottom=0;labelBackgroundColor=none;strokeColor=#82b366;" parent="1" vertex="1">
          <mxGeometry x="40" y="80" width="140" height="288" as="geometry" />
        </mxCell>
        <mxCell id="VQvP7sinkjEN94FzhtHF-2" value="teacherId : int" style="text;strokeColor=none;fillColor=none;align=left;verticalAlign=top;spacingLeft=4;spacingRight=4;overflow=hidden;rotatable=0;points=[[0,0.5],[1,0.5]];portConstraint=eastwest;fontStyle=4;fontColor=#000000;labelBackgroundColor=#00FF2A;" parent="VQvP7sinkjEN94FzhtHF-1" vertex="1">
          <mxGeometry y="26" width="140" height="26" as="geometry" />
        </mxCell>
        <mxCell id="VQvP7sinkjEN94FzhtHF-3" value="teacherName : varchar" style="text;strokeColor=none;fillColor=none;align=left;verticalAlign=top;spacingLeft=4;spacingRight=4;overflow=hidden;rotatable=0;points=[[0,0.5],[1,0.5]];portConstraint=eastwest;" parent="VQvP7sinkjEN94FzhtHF-1" vertex="1">
          <mxGeometry y="52" width="140" height="28" as="geometry" />
        </mxCell>
        <mxCell id="VQvP7sinkjEN94FzhtHF-4" value="teacherFirstName : varchar" style="text;strokeColor=none;fillColor=none;align=left;verticalAlign=top;spacingLeft=4;spacingRight=4;overflow=hidden;rotatable=0;points=[[0,0.5],[1,0.5]];portConstraint=eastwest;" parent="VQvP7sinkjEN94FzhtHF-1" vertex="1">
          <mxGeometry y="80" width="140" height="26" as="geometry" />
        </mxCell>
        <mxCell id="VQvP7sinkjEN94FzhtHF-5" value="teacherEmail : varchar" style="text;strokeColor=none;fillColor=none;align=left;verticalAlign=top;spacingLeft=4;spacingRight=4;overflow=hidden;rotatable=0;points=[[0,0.5],[1,0.5]];portConstraint=eastwest;" parent="VQvP7sinkjEN94FzhtHF-1" vertex="1">
          <mxGeometry y="106" width="140" height="26" as="geometry" />
        </mxCell>
        <mxCell id="VQvP7sinkjEN94FzhtHF-6" value="teacherPassword : varchar" style="text;strokeColor=none;fillColor=none;align=left;verticalAlign=top;spacingLeft=4;spacingRight=4;overflow=hidden;rotatable=0;points=[[0,0.5],[1,0.5]];portConstraint=eastwest;" parent="VQvP7sinkjEN94FzhtHF-1" vertex="1">
          <mxGeometry y="132" width="140" height="26" as="geometry" />
        </mxCell>
        <mxCell id="VQvP7sinkjEN94FzhtHF-7" value="teacherAdress : varchar" style="text;strokeColor=none;fillColor=none;align=left;verticalAlign=top;spacingLeft=4;spacingRight=4;overflow=hidden;rotatable=0;points=[[0,0.5],[1,0.5]];portConstraint=eastwest;" parent="VQvP7sinkjEN94FzhtHF-1" vertex="1">
          <mxGeometry y="158" width="140" height="26" as="geometry" />
        </mxCell>
        <mxCell id="VQvP7sinkjEN94FzhtHF-8" value="teacherPostalCode : varchar" style="text;strokeColor=none;fillColor=none;align=left;verticalAlign=top;spacingLeft=4;spacingRight=4;overflow=hidden;rotatable=0;points=[[0,0.5],[1,0.5]];portConstraint=eastwest;" parent="VQvP7sinkjEN94FzhtHF-1" vertex="1">
          <mxGeometry y="184" width="140" height="26" as="geometry" />
        </mxCell>
        <mxCell id="VQvP7sinkjEN94FzhtHF-9" value="teacherPhoneNumber : varchar" style="text;strokeColor=none;fillColor=none;align=left;verticalAlign=top;spacingLeft=4;spacingRight=4;overflow=hidden;rotatable=0;points=[[0,0.5],[1,0.5]];portConstraint=eastwest;" parent="VQvP7sinkjEN94FzhtHF-1" vertex="1">
          <mxGeometry y="210" width="140" height="26" as="geometry" />
        </mxCell>
        <mxCell id="VQvP7sinkjEN94FzhtHF-10" value="teacherBirthDate : DateTime" style="text;strokeColor=none;fillColor=none;align=left;verticalAlign=top;spacingLeft=4;spacingRight=4;overflow=hidden;rotatable=0;points=[[0,0.5],[1,0.5]];portConstraint=eastwest;" parent="VQvP7sinkjEN94FzhtHF-1" vertex="1">
          <mxGeometry y="236" width="140" height="26" as="geometry" />
        </mxCell>
        <mxCell id="VQvP7sinkjEN94FzhtHF-12" value="teacherFunction : varcharÂ " style="text;strokeColor=none;fillColor=none;align=left;verticalAlign=top;spacingLeft=4;spacingRight=4;overflow=hidden;rotatable=0;points=[[0,0.5],[1,0.5]];portConstraint=eastwest;" parent="VQvP7sinkjEN94FzhtHF-1" vertex="1">
          <mxGeometry y="262" width="140" height="26" as="geometry" />
        </mxCell>
        <mxCell id="VQvP7sinkjEN94FzhtHF-13" value="cours" style="swimlane;fontStyle=0;childLayout=stackLayout;horizontal=1;startSize=26;fillColor=#d5e8d4;horizontalStack=0;resizeParent=1;resizeParentMax=0;resizeLast=0;collapsible=1;marginBottom=0;strokeColor=#82b366;" parent="1" vertex="1">
          <mxGeometry x="290" y="440" width="140" height="130" as="geometry" />
        </mxCell>
        <mxCell id="VQvP7sinkjEN94FzhtHF-14" value="coursId : int" style="text;strokeColor=none;fillColor=none;align=left;verticalAlign=top;spacingLeft=4;spacingRight=4;overflow=hidden;rotatable=0;points=[[0,0.5],[1,0.5]];portConstraint=eastwest;labelBackgroundColor=#00FF4C;fontStyle=4" parent="VQvP7sinkjEN94FzhtHF-13" vertex="1">
          <mxGeometry y="26" width="140" height="26" as="geometry" />
        </mxCell>
        <mxCell id="VQvP7sinkjEN94FzhtHF-16" value="coursName : varchar" style="text;strokeColor=none;fillColor=none;align=left;verticalAlign=top;spacingLeft=4;spacingRight=4;overflow=hidden;rotatable=0;points=[[0,0.5],[1,0.5]];portConstraint=eastwest;" parent="VQvP7sinkjEN94FzhtHF-13" vertex="1">
          <mxGeometry y="52" width="140" height="26" as="geometry" />
        </mxCell>
        <mxCell id="VQvP7sinkjEN94FzhtHF-19" value="teacherId : int" style="text;strokeColor=none;fillColor=none;align=left;verticalAlign=top;spacingLeft=4;spacingRight=4;overflow=hidden;rotatable=0;points=[[0,0.5],[1,0.5]];portConstraint=eastwest;fontStyle=4;fontColor=#000000;labelBackgroundColor=#FF0D0D;" parent="VQvP7sinkjEN94FzhtHF-13" vertex="1">
          <mxGeometry y="78" width="140" height="26" as="geometry" />
        </mxCell>
        <mxCell id="DZclujw8_2qOo26mX_MC-13" value="classId : int" style="text;strokeColor=none;fillColor=none;align=left;verticalAlign=top;spacingLeft=4;spacingRight=4;overflow=hidden;rotatable=0;points=[[0,0.5],[1,0.5]];portConstraint=eastwest;fontColor=#000000;labelBackgroundColor=#FF2200;fontStyle=4" parent="VQvP7sinkjEN94FzhtHF-13" vertex="1">
          <mxGeometry y="104" width="140" height="26" as="geometry" />
        </mxCell>
        <mxCell id="VQvP7sinkjEN94FzhtHF-21" value="student" style="swimlane;fontStyle=0;childLayout=stackLayout;horizontal=1;startSize=26;fillColor=#d5e8d4;horizontalStack=0;resizeParent=1;resizeParentMax=0;resizeLast=0;collapsible=1;marginBottom=0;strokeColor=#82b366;" parent="1" vertex="1">
          <mxGeometry x="600" y="680" width="140" height="338" as="geometry" />
        </mxCell>
        <mxCell id="VQvP7sinkjEN94FzhtHF-22" value="studentId : int" style="text;strokeColor=none;fillColor=none;align=left;verticalAlign=top;spacingLeft=4;spacingRight=4;overflow=hidden;rotatable=0;points=[[0,0.5],[1,0.5]];portConstraint=eastwest;labelBackgroundColor=#19FF38;fontStyle=4" parent="VQvP7sinkjEN94FzhtHF-21" vertex="1">
          <mxGeometry y="26" width="140" height="26" as="geometry" />
        </mxCell>
        <mxCell id="VQvP7sinkjEN94FzhtHF-23" value="studentName: varchar" style="text;strokeColor=none;fillColor=none;align=left;verticalAlign=top;spacingLeft=4;spacingRight=4;overflow=hidden;rotatable=0;points=[[0,0.5],[1,0.5]];portConstraint=eastwest;" parent="VQvP7sinkjEN94FzhtHF-21" vertex="1">
          <mxGeometry y="52" width="140" height="26" as="geometry" />
        </mxCell>
        <mxCell id="VQvP7sinkjEN94FzhtHF-24" value="studentFirstName : varchar" style="text;strokeColor=none;fillColor=none;align=left;verticalAlign=top;spacingLeft=4;spacingRight=4;overflow=hidden;rotatable=0;points=[[0,0.5],[1,0.5]];portConstraint=eastwest;" parent="VQvP7sinkjEN94FzhtHF-21" vertex="1">
          <mxGeometry y="78" width="140" height="26" as="geometry" />
        </mxCell>
        <mxCell id="VQvP7sinkjEN94FzhtHF-25" value="studentEmail : varchar" style="text;strokeColor=none;fillColor=none;align=left;verticalAlign=top;spacingLeft=4;spacingRight=4;overflow=hidden;rotatable=0;points=[[0,0.5],[1,0.5]];portConstraint=eastwest;" parent="VQvP7sinkjEN94FzhtHF-21" vertex="1">
          <mxGeometry y="104" width="140" height="26" as="geometry" />
        </mxCell>
        <mxCell id="VQvP7sinkjEN94FzhtHF-26" value="studentPassword : varchar" style="text;strokeColor=none;fillColor=none;align=left;verticalAlign=top;spacingLeft=4;spacingRight=4;overflow=hidden;rotatable=0;points=[[0,0.5],[1,0.5]];portConstraint=eastwest;" parent="VQvP7sinkjEN94FzhtHF-21" vertex="1">
          <mxGeometry y="130" width="140" height="26" as="geometry" />
        </mxCell>
        <mxCell id="VQvP7sinkjEN94FzhtHF-27" value="studentPhoneNumber : varchar" style="text;strokeColor=none;fillColor=none;align=left;verticalAlign=top;spacingLeft=4;spacingRight=4;overflow=hidden;rotatable=0;points=[[0,0.5],[1,0.5]];portConstraint=eastwest;" parent="VQvP7sinkjEN94FzhtHF-21" vertex="1">
          <mxGeometry y="156" width="140" height="26" as="geometry" />
        </mxCell>
        <mxCell id="VQvP7sinkjEN94FzhtHF-28" value="studentBirthDate : DateTime" style="text;strokeColor=none;fillColor=none;align=left;verticalAlign=top;spacingLeft=4;spacingRight=4;overflow=hidden;rotatable=0;points=[[0,0.5],[1,0.5]];portConstraint=eastwest;" parent="VQvP7sinkjEN94FzhtHF-21" vertex="1">
          <mxGeometry y="182" width="140" height="26" as="geometry" />
        </mxCell>
        <mxCell id="VQvP7sinkjEN94FzhtHF-30" value="studentAdress : varchar" style="text;strokeColor=none;fillColor=none;align=left;verticalAlign=top;spacingLeft=4;spacingRight=4;overflow=hidden;rotatable=0;points=[[0,0.5],[1,0.5]];portConstraint=eastwest;" parent="VQvP7sinkjEN94FzhtHF-21" vertex="1">
          <mxGeometry y="208" width="140" height="26" as="geometry" />
        </mxCell>
        <mxCell id="VQvP7sinkjEN94FzhtHF-31" value="studentPostalCode : varchar&#xa;" style="text;strokeColor=none;fillColor=none;align=left;verticalAlign=top;spacingLeft=4;spacingRight=4;overflow=hidden;rotatable=0;points=[[0,0.5],[1,0.5]];portConstraint=eastwest;" parent="VQvP7sinkjEN94FzhtHF-21" vertex="1">
          <mxGeometry y="234" width="140" height="26" as="geometry" />
        </mxCell>
        <mxCell id="VQvP7sinkjEN94FzhtHF-32" value="studentFunction : varchar" style="text;strokeColor=none;fillColor=none;align=left;verticalAlign=top;spacingLeft=4;spacingRight=4;overflow=hidden;rotatable=0;points=[[0,0.5],[1,0.5]];portConstraint=eastwest;" parent="VQvP7sinkjEN94FzhtHF-21" vertex="1">
          <mxGeometry y="260" width="140" height="26" as="geometry" />
        </mxCell>
        <mxCell id="KSrHdFm3aGdtv8jrWFfG-13" value="studentResponsablePay : bool" style="text;strokeColor=none;fillColor=none;align=left;verticalAlign=top;spacingLeft=4;spacingRight=4;overflow=hidden;rotatable=0;points=[[0,0.5],[1,0.5]];portConstraint=eastwest;" parent="VQvP7sinkjEN94FzhtHF-21" vertex="1">
          <mxGeometry y="286" width="140" height="26" as="geometry" />
        </mxCell>
        <mxCell id="DZclujw8_2qOo26mX_MC-7" value="classId : int" style="text;strokeColor=none;fillColor=none;align=left;verticalAlign=top;spacingLeft=4;spacingRight=4;overflow=hidden;rotatable=0;points=[[0,0.5],[1,0.5]];portConstraint=eastwest;fontColor=#000000;labelBackgroundColor=#FF3414;fontStyle=4" parent="VQvP7sinkjEN94FzhtHF-21" vertex="1">
          <mxGeometry y="312" width="140" height="26" as="geometry" />
        </mxCell>
        <mxCell id="VQvP7sinkjEN94FzhtHF-35" value="" style="endArrow=none;html=1;rounded=0;fontColor=#000000;entryX=1;entryY=0;entryDx=0;entryDy=0;exitX=0.007;exitY=0.231;exitDx=0;exitDy=0;exitPerimeter=0;" parent="1" source="VQvP7sinkjEN94FzhtHF-25" edge="1">
          <mxGeometry width="50" height="50" relative="1" as="geometry">
            <mxPoint x="180" y="770" as="sourcePoint" />
            <mxPoint x="370" y="570" as="targetPoint" />
            <Array as="points" />
          </mxGeometry>
        </mxCell>
        <mxCell id="VQvP7sinkjEN94FzhtHF-36" value="" style="endArrow=none;html=1;rounded=0;fontColor=#000000;entryX=0.5;entryY=0;entryDx=0;entryDy=0;" parent="1" target="VQvP7sinkjEN94FzhtHF-13" edge="1">
          <mxGeometry width="50" height="50" relative="1" as="geometry">
            <mxPoint x="180" y="230" as="sourcePoint" />
            <mxPoint x="230" y="180" as="targetPoint" />
          </mxGeometry>
        </mxCell>
        <mxCell id="VQvP7sinkjEN94FzhtHF-40" value="student_cours" style="swimlane;fontStyle=0;childLayout=stackLayout;horizontal=1;startSize=26;fillColor=#d5e8d4;horizontalStack=0;resizeParent=1;resizeParentMax=0;resizeLast=0;collapsible=1;marginBottom=0;labelBackgroundColor=none;strokeColor=#82b366;" parent="1" vertex="1">
          <mxGeometry x="410" y="628" width="140" height="104" as="geometry" />
        </mxCell>
        <mxCell id="RjdmhweyoWYZN-WOX6py-1" value="student_cours : int" style="text;strokeColor=none;fillColor=none;align=left;verticalAlign=top;spacingLeft=4;spacingRight=4;overflow=hidden;rotatable=0;points=[[0,0.5],[1,0.5]];portConstraint=eastwest;labelBackgroundColor=#19FF38;fontStyle=4" parent="VQvP7sinkjEN94FzhtHF-40" vertex="1">
          <mxGeometry y="26" width="140" height="26" as="geometry" />
        </mxCell>
        <mxCell id="VQvP7sinkjEN94FzhtHF-45" value="coursId : int" style="text;strokeColor=none;fillColor=none;align=left;verticalAlign=top;spacingLeft=4;spacingRight=4;overflow=hidden;rotatable=0;points=[[0,0.5],[1,0.5]];portConstraint=eastwest;labelBackgroundColor=#FF0A0A;fontStyle=4" parent="VQvP7sinkjEN94FzhtHF-40" vertex="1">
          <mxGeometry y="52" width="140" height="26" as="geometry" />
        </mxCell>
        <mxCell id="DZclujw8_2qOo26mX_MC-5" value="studentId : int" style="text;strokeColor=none;fillColor=none;align=left;verticalAlign=top;spacingLeft=4;spacingRight=4;overflow=hidden;rotatable=0;points=[[0,0.5],[1,0.5]];portConstraint=eastwest;labelBackgroundColor=#FF2200;fontStyle=4" parent="VQvP7sinkjEN94FzhtHF-40" vertex="1">
          <mxGeometry y="78" width="140" height="26" as="geometry" />
        </mxCell>
        <mxCell id="_N8wo-y-PnZ0r99mZvtH-20" value="class" style="swimlane;fontStyle=0;childLayout=stackLayout;horizontal=1;startSize=26;fillColor=#d5e8d4;horizontalStack=0;resizeParent=1;resizeParentMax=0;resizeLast=0;collapsible=1;marginBottom=0;strokeColor=#82b366;" parent="1" vertex="1">
          <mxGeometry x="550" y="80" width="140" height="78" as="geometry" />
        </mxCell>
        <mxCell id="_N8wo-y-PnZ0r99mZvtH-21" value="classId : int" style="text;strokeColor=none;fillColor=none;align=left;verticalAlign=top;spacingLeft=4;spacingRight=4;overflow=hidden;rotatable=0;points=[[0,0.5],[1,0.5]];portConstraint=eastwest;fontColor=#000000;labelBackgroundColor=#00FF4C;fontStyle=4" parent="_N8wo-y-PnZ0r99mZvtH-20" vertex="1">
          <mxGeometry y="26" width="140" height="26" as="geometry" />
        </mxCell>
        <mxCell id="_N8wo-y-PnZ0r99mZvtH-22" value="className : varchar" style="text;strokeColor=none;fillColor=none;align=left;verticalAlign=top;spacingLeft=4;spacingRight=4;overflow=hidden;rotatable=0;points=[[0,0.5],[1,0.5]];portConstraint=eastwest;" parent="_N8wo-y-PnZ0r99mZvtH-20" vertex="1">
          <mxGeometry y="52" width="140" height="26" as="geometry" />
        </mxCell>
        <mxCell id="_N8wo-y-PnZ0r99mZvtH-23" value="" style="endArrow=none;html=1;rounded=0;exitX=1;exitY=0.5;exitDx=0;exitDy=0;entryX=0;entryY=0.5;entryDx=0;entryDy=0;" parent="1" source="VQvP7sinkjEN94FzhtHF-3" target="_N8wo-y-PnZ0r99mZvtH-22" edge="1">
          <mxGeometry width="50" height="50" relative="1" as="geometry">
            <mxPoint x="390" y="220" as="sourcePoint" />
            <mxPoint x="440" y="170" as="targetPoint" />
          </mxGeometry>
        </mxCell>
        <mxCell id="_N8wo-y-PnZ0r99mZvtH-24" value="" style="endArrow=none;html=1;rounded=0;exitX=1.014;exitY=0.087;exitDx=0;exitDy=0;exitPerimeter=0;entryX=0.557;entryY=0.962;entryDx=0;entryDy=0;entryPerimeter=0;" parent="1" source="VQvP7sinkjEN94FzhtHF-13" target="_N8wo-y-PnZ0r99mZvtH-22" edge="1">
          <mxGeometry width="50" height="50" relative="1" as="geometry">
            <mxPoint x="590" y="220" as="sourcePoint" />
            <mxPoint x="640" y="170" as="targetPoint" />
          </mxGeometry>
        </mxCell>
        <mxCell id="_N8wo-y-PnZ0r99mZvtH-25" value="" style="endArrow=none;html=1;rounded=0;exitX=0.5;exitY=0;exitDx=0;exitDy=0;entryX=0.886;entryY=1;entryDx=0;entryDy=0;entryPerimeter=0;" parent="1" source="VQvP7sinkjEN94FzhtHF-21" target="_N8wo-y-PnZ0r99mZvtH-22" edge="1">
          <mxGeometry width="50" height="50" relative="1" as="geometry">
            <mxPoint x="640" y="210" as="sourcePoint" />
            <mxPoint x="690" y="160" as="targetPoint" />
          </mxGeometry>
        </mxCell>
        <mxCell id="DZclujw8_2qOo26mX_MC-8" value="teacher_class" style="swimlane;fontStyle=0;childLayout=stackLayout;horizontal=1;startSize=26;fillColor=#d5e8d4;horizontalStack=0;resizeParent=1;resizeParentMax=0;resizeLast=0;collapsible=1;marginBottom=0;labelBackgroundColor=none;strokeColor=#82b366;" parent="1" vertex="1">
          <mxGeometry x="310" y="84" width="140" height="104" as="geometry" />
        </mxCell>
        <mxCell id="KSrHdFm3aGdtv8jrWFfG-40" value="teacher_class : int" style="text;strokeColor=none;fillColor=none;align=left;verticalAlign=top;spacingLeft=4;spacingRight=4;overflow=hidden;rotatable=0;points=[[0,0.5],[1,0.5]];portConstraint=eastwest;fontColor=#000000;labelBackgroundColor=#00FF4C;fontStyle=4" parent="DZclujw8_2qOo26mX_MC-8" vertex="1">
          <mxGeometry y="26" width="140" height="26" as="geometry" />
        </mxCell>
        <mxCell id="DZclujw8_2qOo26mX_MC-9" value="classId:int" style="text;strokeColor=none;fillColor=none;align=left;verticalAlign=top;spacingLeft=4;spacingRight=4;overflow=hidden;rotatable=0;points=[[0,0.5],[1,0.5]];portConstraint=eastwest;labelBackgroundColor=#FF0A0A;fontStyle=4" parent="DZclujw8_2qOo26mX_MC-8" vertex="1">
          <mxGeometry y="52" width="140" height="26" as="geometry" />
        </mxCell>
        <mxCell id="DZclujw8_2qOo26mX_MC-10" value="teacherId:int" style="text;strokeColor=none;fillColor=none;align=left;verticalAlign=top;spacingLeft=4;spacingRight=4;overflow=hidden;rotatable=0;points=[[0,0.5],[1,0.5]];portConstraint=eastwest;labelBackgroundColor=#FF2200;fontStyle=4" parent="DZclujw8_2qOo26mX_MC-8" vertex="1">
          <mxGeometry y="78" width="140" height="26" as="geometry" />
        </mxCell>
        <mxCell id="DZclujw8_2qOo26mX_MC-19" value="interro" style="swimlane;fontStyle=0;childLayout=stackLayout;horizontal=1;startSize=26;fillColor=#d5e8d4;horizontalStack=0;resizeParent=1;resizeParentMax=0;resizeLast=0;collapsible=1;marginBottom=0;strokeColor=#82b366;" parent="1" vertex="1">
          <mxGeometry x="30" y="730" width="140" height="182" as="geometry" />
        </mxCell>
        <mxCell id="DZclujw8_2qOo26mX_MC-25" value="" style="endArrow=none;html=1;rounded=0;fontColor=#FF0D0D;exitX=0.571;exitY=-0.038;exitDx=0;exitDy=0;exitPerimeter=0;entryX=0.021;entryY=-0.038;entryDx=0;entryDy=0;entryPerimeter=0;" parent="DZclujw8_2qOo26mX_MC-19" target="VQvP7sinkjEN94FzhtHF-27" edge="1">
          <mxGeometry width="50" height="50" relative="1" as="geometry">
            <mxPoint x="140.00000000000006" y="104" as="sourcePoint" />
            <mxPoint x="560" y="104" as="targetPoint" />
          </mxGeometry>
        </mxCell>
        <mxCell id="DZclujw8_2qOo26mX_MC-20" value="interroId : int" style="text;strokeColor=none;fillColor=none;align=left;verticalAlign=top;spacingLeft=4;spacingRight=4;overflow=hidden;rotatable=0;points=[[0,0.5],[1,0.5]];portConstraint=eastwest;labelBackgroundColor=#00FF00;" parent="DZclujw8_2qOo26mX_MC-19" vertex="1">
          <mxGeometry y="26" width="140" height="26" as="geometry" />
        </mxCell>
        <mxCell id="DZclujw8_2qOo26mX_MC-21" value="interroName : varchar" style="text;strokeColor=none;fillColor=none;align=left;verticalAlign=top;spacingLeft=4;spacingRight=4;overflow=hidden;rotatable=0;points=[[0,0.5],[1,0.5]];portConstraint=eastwest;" parent="DZclujw8_2qOo26mX_MC-19" vertex="1">
          <mxGeometry y="52" width="140" height="26" as="geometry" />
        </mxCell>
        <mxCell id="DZclujw8_2qOo26mX_MC-22" value="interroResultat : int" style="text;strokeColor=none;fillColor=none;align=left;verticalAlign=top;spacingLeft=4;spacingRight=4;overflow=hidden;rotatable=0;points=[[0,0.5],[1,0.5]];portConstraint=eastwest;" parent="DZclujw8_2qOo26mX_MC-19" vertex="1">
          <mxGeometry y="78" width="140" height="26" as="geometry" />
        </mxCell>
        <mxCell id="DZclujw8_2qOo26mX_MC-23" value="interroCotation : int" style="text;strokeColor=none;fillColor=none;align=left;verticalAlign=top;spacingLeft=4;spacingRight=4;overflow=hidden;rotatable=0;points=[[0,0.5],[1,0.5]];portConstraint=eastwest;" parent="DZclujw8_2qOo26mX_MC-19" vertex="1">
          <mxGeometry y="104" width="140" height="26" as="geometry" />
        </mxCell>
        <mxCell id="DZclujw8_2qOo26mX_MC-35" value="teacherId : int" style="text;strokeColor=none;fillColor=none;align=left;verticalAlign=top;spacingLeft=4;spacingRight=4;overflow=hidden;rotatable=0;points=[[0,0.5],[1,0.5]];portConstraint=eastwest;fontStyle=4;fontColor=#000000;labelBackgroundColor=#FF0A0A;" parent="DZclujw8_2qOo26mX_MC-19" vertex="1">
          <mxGeometry y="130" width="140" height="26" as="geometry" />
        </mxCell>
        <mxCell id="DZclujw8_2qOo26mX_MC-30" value="studentId : int" style="text;strokeColor=none;fillColor=none;align=left;verticalAlign=top;spacingLeft=4;spacingRight=4;overflow=hidden;rotatable=0;points=[[0,0.5],[1,0.5]];portConstraint=eastwest;labelBackgroundColor=#FF3414;fontStyle=4" parent="DZclujw8_2qOo26mX_MC-19" vertex="1">
          <mxGeometry y="156" width="140" height="26" as="geometry" />
        </mxCell>
        <mxCell id="DZclujw8_2qOo26mX_MC-24" value="" style="endArrow=none;html=1;rounded=0;fontColor=#FF0D0D;exitX=0.571;exitY=0.008;exitDx=0;exitDy=0;exitPerimeter=0;" parent="1" source="DZclujw8_2qOo26mX_MC-19" target="VQvP7sinkjEN94FzhtHF-12" edge="1">
          <mxGeometry width="50" height="50" relative="1" as="geometry">
            <mxPoint x="70" y="730" as="sourcePoint" />
            <mxPoint x="120" y="680" as="targetPoint" />
          </mxGeometry>
        </mxCell>
        <mxCell id="DZclujw8_2qOo26mX_MC-47" style="edgeStyle=orthogonalEdgeStyle;rounded=0;orthogonalLoop=1;jettySize=auto;html=1;entryX=0.5;entryY=0;entryDx=0;entryDy=0;fontColor=#FFFCFA;" parent="1" source="DZclujw8_2qOo26mX_MC-36" target="VQvP7sinkjEN94FzhtHF-1" edge="1">
          <mxGeometry relative="1" as="geometry" />
        </mxCell>
        <mxCell id="DZclujw8_2qOo26mX_MC-36" value="remark" style="swimlane;fontStyle=0;childLayout=stackLayout;horizontal=1;startSize=26;fillColor=#d5e8d4;horizontalStack=0;resizeParent=1;resizeParentMax=0;resizeLast=0;collapsible=1;marginBottom=0;strokeColor=#82b366;" parent="1" vertex="1">
          <mxGeometry x="940" y="-140" width="140" height="230" as="geometry" />
        </mxCell>
        <mxCell id="DZclujw8_2qOo26mX_MC-37" value="remarkId : int" style="text;strokeColor=none;fillColor=none;align=left;verticalAlign=top;spacingLeft=4;spacingRight=4;overflow=hidden;rotatable=0;points=[[0,0.5],[1,0.5]];portConstraint=eastwest;labelBackgroundColor=#19FF38;fontStyle=4" parent="DZclujw8_2qOo26mX_MC-36" vertex="1">
          <mxGeometry y="26" width="140" height="22" as="geometry" />
        </mxCell>
        <mxCell id="DZclujw8_2qOo26mX_MC-38" value="remarkTitle : varchar" style="text;strokeColor=none;fillColor=none;align=left;verticalAlign=top;spacingLeft=4;spacingRight=4;overflow=hidden;rotatable=0;points=[[0,0.5],[1,0.5]];portConstraint=eastwest;" parent="DZclujw8_2qOo26mX_MC-36" vertex="1">
          <mxGeometry y="48" width="140" height="26" as="geometry" />
        </mxCell>
        <mxCell id="DZclujw8_2qOo26mX_MC-39" value="remarkContent : text" style="text;strokeColor=none;fillColor=none;align=left;verticalAlign=top;spacingLeft=4;spacingRight=4;overflow=hidden;rotatable=0;points=[[0,0.5],[1,0.5]];portConstraint=eastwest;" parent="DZclujw8_2qOo26mX_MC-36" vertex="1">
          <mxGeometry y="74" width="140" height="26" as="geometry" />
        </mxCell>
        <mxCell id="DZclujw8_2qOo26mX_MC-40" value="remarkDate : Datetime" style="text;strokeColor=none;fillColor=none;align=left;verticalAlign=top;spacingLeft=4;spacingRight=4;overflow=hidden;rotatable=0;points=[[0,0.5],[1,0.5]];portConstraint=eastwest;" parent="DZclujw8_2qOo26mX_MC-36" vertex="1">
          <mxGeometry y="100" width="140" height="26" as="geometry" />
        </mxCell>
        <mxCell id="DZclujw8_2qOo26mX_MC-51" value="teacherId : int" style="text;strokeColor=none;fillColor=none;align=left;verticalAlign=top;spacingLeft=4;spacingRight=4;overflow=hidden;rotatable=0;points=[[0,0.5],[1,0.5]];portConstraint=eastwest;fontStyle=4;fontColor=#000000;labelBackgroundColor=#FF0A0A;" parent="DZclujw8_2qOo26mX_MC-36" vertex="1">
          <mxGeometry y="126" width="140" height="26" as="geometry" />
        </mxCell>
        <mxCell id="DZclujw8_2qOo26mX_MC-55" value="studentId : int" style="text;strokeColor=none;fillColor=none;align=left;verticalAlign=top;spacingLeft=4;spacingRight=4;overflow=hidden;rotatable=0;points=[[0,0.5],[1,0.5]];portConstraint=eastwest;labelBackgroundColor=#FF0A0A;fontStyle=4" parent="DZclujw8_2qOo26mX_MC-36" vertex="1">
          <mxGeometry y="152" width="140" height="26" as="geometry" />
        </mxCell>
        <mxCell id="RjdmhweyoWYZN-WOX6py-2" value="educatorId : int" style="text;strokeColor=none;fillColor=none;align=left;verticalAlign=top;spacingLeft=4;spacingRight=4;overflow=hidden;rotatable=0;points=[[0,0.5],[1,0.5]];portConstraint=eastwest;labelBackgroundColor=#FF0000;" parent="DZclujw8_2qOo26mX_MC-36" vertex="1">
          <mxGeometry y="178" width="140" height="26" as="geometry" />
        </mxCell>
        <mxCell id="ENMm6VcqytKsvSAyXC8p-4" value="coursId : int" style="text;strokeColor=none;fillColor=none;align=left;verticalAlign=top;spacingLeft=4;spacingRight=4;overflow=hidden;rotatable=0;points=[[0,0.5],[1,0.5]];portConstraint=eastwest;labelBackgroundColor=#FF0F0F;fontStyle=4" parent="DZclujw8_2qOo26mX_MC-36" vertex="1">
          <mxGeometry y="204" width="140" height="26" as="geometry" />
        </mxCell>
        <mxCell id="DZclujw8_2qOo26mX_MC-45" style="edgeStyle=orthogonalEdgeStyle;rounded=0;orthogonalLoop=1;jettySize=auto;html=1;exitX=1;exitY=0.5;exitDx=0;exitDy=0;fontColor=#FFFCFA;" parent="1" source="VQvP7sinkjEN94FzhtHF-27" target="DZclujw8_2qOo26mX_MC-40" edge="1">
          <mxGeometry relative="1" as="geometry" />
        </mxCell>
        <mxCell id="DZclujw8_2qOo26mX_MC-56" value="parent" style="swimlane;fontStyle=0;childLayout=stackLayout;horizontal=1;startSize=26;fillColor=#d5e8d4;horizontalStack=0;resizeParent=1;resizeParentMax=0;resizeLast=0;collapsible=1;marginBottom=0;strokeColor=#82b366;" parent="1" vertex="1">
          <mxGeometry x="1270" y="1030" width="140" height="308" as="geometry" />
        </mxCell>
        <mxCell id="DZclujw8_2qOo26mX_MC-57" value="parentId : int" style="text;strokeColor=none;fillColor=none;align=left;verticalAlign=top;spacingLeft=4;spacingRight=4;overflow=hidden;rotatable=0;points=[[0,0.5],[1,0.5]];portConstraint=eastwest;labelBackgroundColor=#00FF2A;fontStyle=4" parent="DZclujw8_2qOo26mX_MC-56" vertex="1">
          <mxGeometry y="26" width="140" height="26" as="geometry" />
        </mxCell>
        <mxCell id="DZclujw8_2qOo26mX_MC-58" value="parentName : varchar" style="text;strokeColor=none;fillColor=none;align=left;verticalAlign=top;spacingLeft=4;spacingRight=4;overflow=hidden;rotatable=0;points=[[0,0.5],[1,0.5]];portConstraint=eastwest;" parent="DZclujw8_2qOo26mX_MC-56" vertex="1">
          <mxGeometry y="52" width="140" height="26" as="geometry" />
        </mxCell>
        <mxCell id="DZclujw8_2qOo26mX_MC-59" value="parentFirstName : varchar" style="text;strokeColor=none;fillColor=none;align=left;verticalAlign=top;spacingLeft=4;spacingRight=4;overflow=hidden;rotatable=0;points=[[0,0.5],[1,0.5]];portConstraint=eastwest;" parent="DZclujw8_2qOo26mX_MC-56" vertex="1">
          <mxGeometry y="78" width="140" height="26" as="geometry" />
        </mxCell>
        <mxCell id="DZclujw8_2qOo26mX_MC-60" value="parentEmail : varchar" style="text;strokeColor=none;fillColor=none;align=left;verticalAlign=top;spacingLeft=4;spacingRight=4;overflow=hidden;rotatable=0;points=[[0,0.5],[1,0.5]];portConstraint=eastwest;" parent="DZclujw8_2qOo26mX_MC-56" vertex="1">
          <mxGeometry y="104" width="140" height="26" as="geometry" />
        </mxCell>
        <mxCell id="DZclujw8_2qOo26mX_MC-61" value="parentPassword : varchar" style="text;strokeColor=none;fillColor=none;align=left;verticalAlign=top;spacingLeft=4;spacingRight=4;overflow=hidden;rotatable=0;points=[[0,0.5],[1,0.5]];portConstraint=eastwest;" parent="DZclujw8_2qOo26mX_MC-56" vertex="1">
          <mxGeometry y="130" width="140" height="26" as="geometry" />
        </mxCell>
        <mxCell id="DZclujw8_2qOo26mX_MC-62" value="parentAdress : varchar" style="text;strokeColor=none;fillColor=none;align=left;verticalAlign=top;spacingLeft=4;spacingRight=4;overflow=hidden;rotatable=0;points=[[0,0.5],[1,0.5]];portConstraint=eastwest;" parent="DZclujw8_2qOo26mX_MC-56" vertex="1">
          <mxGeometry y="156" width="140" height="26" as="geometry" />
        </mxCell>
        <mxCell id="DZclujw8_2qOo26mX_MC-63" value="parentPostalCode :varchar" style="text;strokeColor=none;fillColor=none;align=left;verticalAlign=top;spacingLeft=4;spacingRight=4;overflow=hidden;rotatable=0;points=[[0,0.5],[1,0.5]];portConstraint=eastwest;" parent="DZclujw8_2qOo26mX_MC-56" vertex="1">
          <mxGeometry y="182" width="140" height="26" as="geometry" />
        </mxCell>
        <mxCell id="DZclujw8_2qOo26mX_MC-64" value="parentPhoneNumber : varchar" style="text;strokeColor=none;fillColor=none;align=left;verticalAlign=top;spacingLeft=4;spacingRight=4;overflow=hidden;rotatable=0;points=[[0,0.5],[1,0.5]];portConstraint=eastwest;" parent="DZclujw8_2qOo26mX_MC-56" vertex="1">
          <mxGeometry y="208" width="140" height="26" as="geometry" />
        </mxCell>
        <mxCell id="DZclujw8_2qOo26mX_MC-65" value="parentBirthDate : DateTime" style="text;strokeColor=none;fillColor=none;align=left;verticalAlign=top;spacingLeft=4;spacingRight=4;overflow=hidden;rotatable=0;points=[[0,0.5],[1,0.5]];portConstraint=eastwest;" parent="DZclujw8_2qOo26mX_MC-56" vertex="1">
          <mxGeometry y="234" width="140" height="26" as="geometry" />
        </mxCell>
        <mxCell id="DZclujw8_2qOo26mX_MC-67" value="parentFunction : varcharÂ " style="text;strokeColor=none;fillColor=none;align=left;verticalAlign=top;spacingLeft=4;spacingRight=4;overflow=hidden;rotatable=0;points=[[0,0.5],[1,0.5]];portConstraint=eastwest;" parent="DZclujw8_2qOo26mX_MC-56" vertex="1">
          <mxGeometry y="260" width="140" height="24" as="geometry" />
        </mxCell>
        <mxCell id="KSrHdFm3aGdtv8jrWFfG-14" value="parentResponsablePay : bool" style="text;strokeColor=none;fillColor=none;align=left;verticalAlign=top;spacingLeft=4;spacingRight=4;overflow=hidden;rotatable=0;points=[[0,0.5],[1,0.5]];portConstraint=eastwest;" parent="DZclujw8_2qOo26mX_MC-56" vertex="1">
          <mxGeometry y="284" width="140" height="24" as="geometry" />
        </mxCell>
        <mxCell id="DZclujw8_2qOo26mX_MC-68" style="edgeStyle=orthogonalEdgeStyle;rounded=0;orthogonalLoop=1;jettySize=auto;html=1;entryX=1;entryY=0.5;entryDx=0;entryDy=0;fontColor=#FFFCFA;" parent="1" source="DZclujw8_2qOo26mX_MC-57" target="VQvP7sinkjEN94FzhtHF-32" edge="1">
          <mxGeometry relative="1" as="geometry" />
        </mxCell>
        <mxCell id="DZclujw8_2qOo26mX_MC-71" style="edgeStyle=orthogonalEdgeStyle;rounded=0;orthogonalLoop=1;jettySize=auto;html=1;exitX=0.5;exitY=1;exitDx=0;exitDy=0;fontColor=#FFFCFA;" parent="1" edge="1">
          <mxGeometry relative="1" as="geometry">
            <mxPoint x="630" y="188" as="sourcePoint" />
            <mxPoint x="630" y="188" as="targetPoint" />
          </mxGeometry>
        </mxCell>
        <mxCell id="DZclujw8_2qOo26mX_MC-73" value="student_parent" style="swimlane;fontStyle=0;childLayout=stackLayout;horizontal=1;startSize=26;fillColor=#d5e8d4;horizontalStack=0;resizeParent=1;resizeParentMax=0;resizeLast=0;collapsible=1;marginBottom=0;labelBackgroundColor=none;strokeColor=#82b366;" parent="1" vertex="1">
          <mxGeometry x="940" y="1010" width="140" height="104" as="geometry" />
        </mxCell>
        <mxCell id="RjdmhweyoWYZN-WOX6py-3" value="student_parent : int" style="text;strokeColor=none;fillColor=none;align=left;verticalAlign=top;spacingLeft=4;spacingRight=4;overflow=hidden;rotatable=0;points=[[0,0.5],[1,0.5]];portConstraint=eastwest;labelBackgroundColor=#00FF2A;fontStyle=4" parent="DZclujw8_2qOo26mX_MC-73" vertex="1">
          <mxGeometry y="26" width="140" height="26" as="geometry" />
        </mxCell>
        <mxCell id="DZclujw8_2qOo26mX_MC-74" value="studentId : int" style="text;strokeColor=none;fillColor=none;align=left;verticalAlign=top;spacingLeft=4;spacingRight=4;overflow=hidden;rotatable=0;points=[[0,0.5],[1,0.5]];portConstraint=eastwest;labelBackgroundColor=#FF0A0A;fontStyle=4" parent="DZclujw8_2qOo26mX_MC-73" vertex="1">
          <mxGeometry y="52" width="140" height="26" as="geometry" />
        </mxCell>
        <mxCell id="DZclujw8_2qOo26mX_MC-75" value="parentId : int" style="text;strokeColor=none;fillColor=none;align=left;verticalAlign=top;spacingLeft=4;spacingRight=4;overflow=hidden;rotatable=0;points=[[0,0.5],[1,0.5]];portConstraint=eastwest;labelBackgroundColor=#FF2200;fontStyle=4" parent="DZclujw8_2qOo26mX_MC-73" vertex="1">
          <mxGeometry y="78" width="140" height="26" as="geometry" />
        </mxCell>
        <mxCell id="DZclujw8_2qOo26mX_MC-76" value="infoImp" style="swimlane;fontStyle=0;childLayout=stackLayout;horizontal=1;startSize=26;fillColor=#d5e8d4;horizontalStack=0;resizeParent=1;resizeParentMax=0;resizeLast=0;collapsible=1;marginBottom=0;strokeColor=#82b366;" parent="1" vertex="1">
          <mxGeometry x="180" y="1642" width="140" height="182" as="geometry" />
        </mxCell>
        <mxCell id="DZclujw8_2qOo26mX_MC-77" value="infoImpId : int" style="text;strokeColor=none;fillColor=none;align=left;verticalAlign=top;spacingLeft=4;spacingRight=4;overflow=hidden;rotatable=0;points=[[0,0.5],[1,0.5]];portConstraint=eastwest;fontStyle=4;labelBackgroundColor=#00FF00;" parent="DZclujw8_2qOo26mX_MC-76" vertex="1">
          <mxGeometry y="26" width="140" height="26" as="geometry" />
        </mxCell>
        <mxCell id="DZclujw8_2qOo26mX_MC-78" value="infoImpTitle : varcahar&#xa;" style="text;strokeColor=none;fillColor=none;align=left;verticalAlign=top;spacingLeft=4;spacingRight=4;overflow=hidden;rotatable=0;points=[[0,0.5],[1,0.5]];portConstraint=eastwest;" parent="DZclujw8_2qOo26mX_MC-76" vertex="1">
          <mxGeometry y="52" width="140" height="26" as="geometry" />
        </mxCell>
        <mxCell id="DZclujw8_2qOo26mX_MC-79" value="infoImpContent : text" style="text;strokeColor=none;fillColor=none;align=left;verticalAlign=top;spacingLeft=4;spacingRight=4;overflow=hidden;rotatable=0;points=[[0,0.5],[1,0.5]];portConstraint=eastwest;" parent="DZclujw8_2qOo26mX_MC-76" vertex="1">
          <mxGeometry y="78" width="140" height="26" as="geometry" />
        </mxCell>
        <mxCell id="DZclujw8_2qOo26mX_MC-80" value="infoImpDate :Datetime" style="text;strokeColor=none;fillColor=none;align=left;verticalAlign=top;spacingLeft=4;spacingRight=4;overflow=hidden;rotatable=0;points=[[0,0.5],[1,0.5]];portConstraint=eastwest;" parent="DZclujw8_2qOo26mX_MC-76" vertex="1">
          <mxGeometry y="104" width="140" height="26" as="geometry" />
        </mxCell>
        <mxCell id="UiecMXzHlNWEPrgvI9-e-2" value="secretaryId : int" style="text;strokeColor=none;fillColor=none;align=left;verticalAlign=top;spacingLeft=4;spacingRight=4;overflow=hidden;rotatable=0;points=[[0,0.5],[1,0.5]];portConstraint=eastwest;labelBackgroundColor=#FF0000;fontStyle=4" parent="DZclujw8_2qOo26mX_MC-76" vertex="1">
          <mxGeometry y="130" width="140" height="26" as="geometry" />
        </mxCell>
        <mxCell id="UiecMXzHlNWEPrgvI9-e-3" value="educatorId : int" style="text;strokeColor=none;fillColor=none;align=left;verticalAlign=top;spacingLeft=4;spacingRight=4;overflow=hidden;rotatable=0;points=[[0,0.5],[1,0.5]];portConstraint=eastwest;labelBackgroundColor=#FF0000;" parent="DZclujw8_2qOo26mX_MC-76" vertex="1">
          <mxGeometry y="156" width="140" height="26" as="geometry" />
        </mxCell>
        <mxCell id="DZclujw8_2qOo26mX_MC-81" value="secretary" style="swimlane;fontStyle=0;childLayout=stackLayout;horizontal=1;startSize=26;fillColor=#d5e8d4;horizontalStack=0;resizeParent=1;resizeParentMax=0;resizeLast=0;collapsible=1;marginBottom=0;strokeColor=#82b366;" parent="1" vertex="1">
          <mxGeometry x="30" y="1078" width="140" height="286" as="geometry" />
        </mxCell>
        <mxCell id="DZclujw8_2qOo26mX_MC-82" value="secretaryId : int" style="text;strokeColor=none;fillColor=none;align=left;verticalAlign=top;spacingLeft=4;spacingRight=4;overflow=hidden;rotatable=0;points=[[0,0.5],[1,0.5]];portConstraint=eastwest;labelBackgroundColor=#00FF4C;fontStyle=4" parent="DZclujw8_2qOo26mX_MC-81" vertex="1">
          <mxGeometry y="26" width="140" height="26" as="geometry" />
        </mxCell>
        <mxCell id="DZclujw8_2qOo26mX_MC-83" value="secretaryName : varchar" style="text;strokeColor=none;fillColor=none;align=left;verticalAlign=top;spacingLeft=4;spacingRight=4;overflow=hidden;rotatable=0;points=[[0,0.5],[1,0.5]];portConstraint=eastwest;" parent="DZclujw8_2qOo26mX_MC-81" vertex="1">
          <mxGeometry y="52" width="140" height="26" as="geometry" />
        </mxCell>
        <mxCell id="DZclujw8_2qOo26mX_MC-84" value="secretaryFirstName : varchar" style="text;strokeColor=none;fillColor=none;align=left;verticalAlign=top;spacingLeft=4;spacingRight=4;overflow=hidden;rotatable=0;points=[[0,0.5],[1,0.5]];portConstraint=eastwest;" parent="DZclujw8_2qOo26mX_MC-81" vertex="1">
          <mxGeometry y="78" width="140" height="26" as="geometry" />
        </mxCell>
        <mxCell id="DZclujw8_2qOo26mX_MC-85" value="secretaryEmail : varchar" style="text;strokeColor=none;fillColor=none;align=left;verticalAlign=top;spacingLeft=4;spacingRight=4;overflow=hidden;rotatable=0;points=[[0,0.5],[1,0.5]];portConstraint=eastwest;" parent="DZclujw8_2qOo26mX_MC-81" vertex="1">
          <mxGeometry y="104" width="140" height="26" as="geometry" />
        </mxCell>
        <mxCell id="DZclujw8_2qOo26mX_MC-86" value="secretaryPassword : varchar" style="text;strokeColor=none;fillColor=none;align=left;verticalAlign=top;spacingLeft=4;spacingRight=4;overflow=hidden;rotatable=0;points=[[0,0.5],[1,0.5]];portConstraint=eastwest;" parent="DZclujw8_2qOo26mX_MC-81" vertex="1">
          <mxGeometry y="130" width="140" height="26" as="geometry" />
        </mxCell>
        <mxCell id="DZclujw8_2qOo26mX_MC-87" value="secretaryAdress : varchar" style="text;strokeColor=none;fillColor=none;align=left;verticalAlign=top;spacingLeft=4;spacingRight=4;overflow=hidden;rotatable=0;points=[[0,0.5],[1,0.5]];portConstraint=eastwest;" parent="DZclujw8_2qOo26mX_MC-81" vertex="1">
          <mxGeometry y="156" width="140" height="26" as="geometry" />
        </mxCell>
        <mxCell id="DZclujw8_2qOo26mX_MC-88" value="secretaryPostalCode : varchar" style="text;strokeColor=none;fillColor=none;align=left;verticalAlign=top;spacingLeft=4;spacingRight=4;overflow=hidden;rotatable=0;points=[[0,0.5],[1,0.5]];portConstraint=eastwest;" parent="DZclujw8_2qOo26mX_MC-81" vertex="1">
          <mxGeometry y="182" width="140" height="26" as="geometry" />
        </mxCell>
        <mxCell id="DZclujw8_2qOo26mX_MC-89" value="secretaryPhoneNumber : varchar" style="text;strokeColor=none;fillColor=none;align=left;verticalAlign=top;spacingLeft=4;spacingRight=4;overflow=hidden;rotatable=0;points=[[0,0.5],[1,0.5]];portConstraint=eastwest;" parent="DZclujw8_2qOo26mX_MC-81" vertex="1">
          <mxGeometry y="208" width="140" height="26" as="geometry" />
        </mxCell>
        <mxCell id="DZclujw8_2qOo26mX_MC-90" value="secretaryBirthDate : DateTime" style="text;strokeColor=none;fillColor=none;align=left;verticalAlign=top;spacingLeft=4;spacingRight=4;overflow=hidden;rotatable=0;points=[[0,0.5],[1,0.5]];portConstraint=eastwest;" parent="DZclujw8_2qOo26mX_MC-81" vertex="1">
          <mxGeometry y="234" width="140" height="26" as="geometry" />
        </mxCell>
        <mxCell id="DZclujw8_2qOo26mX_MC-92" value="secretaryFunction : varcharÂ " style="text;strokeColor=none;fillColor=none;align=left;verticalAlign=top;spacingLeft=4;spacingRight=4;overflow=hidden;rotatable=0;points=[[0,0.5],[1,0.5]];portConstraint=eastwest;" parent="DZclujw8_2qOo26mX_MC-81" vertex="1">
          <mxGeometry y="260" width="140" height="26" as="geometry" />
        </mxCell>
        <mxCell id="DZclujw8_2qOo26mX_MC-94" value="facture" style="swimlane;fontStyle=0;childLayout=stackLayout;horizontal=1;startSize=26;fillColor=#d5e8d4;horizontalStack=0;resizeParent=1;resizeParentMax=0;resizeLast=0;collapsible=1;marginBottom=0;strokeColor=#82b366;" parent="1" vertex="1">
          <mxGeometry x="560" y="1330" width="140" height="312" as="geometry" />
        </mxCell>
        <mxCell id="DZclujw8_2qOo26mX_MC-95" value="factureId : int" style="text;strokeColor=none;fillColor=none;align=left;verticalAlign=top;spacingLeft=4;spacingRight=4;overflow=hidden;rotatable=0;points=[[0,0.5],[1,0.5]];portConstraint=eastwest;labelBackgroundColor=#19FF38;fontStyle=4" parent="DZclujw8_2qOo26mX_MC-94" vertex="1">
          <mxGeometry y="26" width="140" height="26" as="geometry" />
        </mxCell>
        <mxCell id="DZclujw8_2qOo26mX_MC-96" value="factureNameDesti : varchar" style="text;strokeColor=none;fillColor=none;align=left;verticalAlign=top;spacingLeft=4;spacingRight=4;overflow=hidden;rotatable=0;points=[[0,0.5],[1,0.5]];portConstraint=eastwest;" parent="DZclujw8_2qOo26mX_MC-94" vertex="1">
          <mxGeometry y="52" width="140" height="26" as="geometry" />
        </mxCell>
        <mxCell id="DZclujw8_2qOo26mX_MC-97" value="factureFirstNameDesti : varchar" style="text;strokeColor=none;fillColor=none;align=left;verticalAlign=top;spacingLeft=4;spacingRight=4;overflow=hidden;rotatable=0;points=[[0,0.5],[1,0.5]];portConstraint=eastwest;" parent="DZclujw8_2qOo26mX_MC-94" vertex="1">
          <mxGeometry y="78" width="140" height="26" as="geometry" />
        </mxCell>
        <mxCell id="DZclujw8_2qOo26mX_MC-98" value="factureAdressDesti : varchar" style="text;strokeColor=none;fillColor=none;align=left;verticalAlign=top;spacingLeft=4;spacingRight=4;overflow=hidden;rotatable=0;points=[[0,0.5],[1,0.5]];portConstraint=eastwest;" parent="DZclujw8_2qOo26mX_MC-94" vertex="1">
          <mxGeometry y="104" width="140" height="26" as="geometry" />
        </mxCell>
        <mxCell id="DZclujw8_2qOo26mX_MC-99" value="facturePostalCodeDesti : int" style="text;strokeColor=none;fillColor=none;align=left;verticalAlign=top;spacingLeft=4;spacingRight=4;overflow=hidden;rotatable=0;points=[[0,0.5],[1,0.5]];portConstraint=eastwest;" parent="DZclujw8_2qOo26mX_MC-94" vertex="1">
          <mxGeometry y="130" width="140" height="26" as="geometry" />
        </mxCell>
        <mxCell id="DZclujw8_2qOo26mX_MC-100" value="factureCommunication : text" style="text;strokeColor=none;fillColor=none;align=left;verticalAlign=top;spacingLeft=4;spacingRight=4;overflow=hidden;rotatable=0;points=[[0,0.5],[1,0.5]];portConstraint=eastwest;" parent="DZclujw8_2qOo26mX_MC-94" vertex="1">
          <mxGeometry y="156" width="140" height="26" as="geometry" />
        </mxCell>
        <mxCell id="DZclujw8_2qOo26mX_MC-101" value="factureMontant : float" style="text;strokeColor=none;fillColor=none;align=left;verticalAlign=top;spacingLeft=4;spacingRight=4;overflow=hidden;rotatable=0;points=[[0,0.5],[1,0.5]];portConstraint=eastwest;" parent="DZclujw8_2qOo26mX_MC-94" vertex="1">
          <mxGeometry y="182" width="140" height="26" as="geometry" />
        </mxCell>
        <mxCell id="DZclujw8_2qOo26mX_MC-102" value="facturePaye : bool" style="text;strokeColor=none;fillColor=none;align=left;verticalAlign=top;spacingLeft=4;spacingRight=4;overflow=hidden;rotatable=0;points=[[0,0.5],[1,0.5]];portConstraint=eastwest;" parent="DZclujw8_2qOo26mX_MC-94" vertex="1">
          <mxGeometry y="208" width="140" height="26" as="geometry" />
        </mxCell>
        <mxCell id="UiecMXzHlNWEPrgvI9-e-1" value="secretaryId : int" style="text;strokeColor=none;fillColor=none;align=left;verticalAlign=top;spacingLeft=4;spacingRight=4;overflow=hidden;rotatable=0;points=[[0,0.5],[1,0.5]];portConstraint=eastwest;labelBackgroundColor=#FF0000;fontStyle=4" parent="DZclujw8_2qOo26mX_MC-94" vertex="1">
          <mxGeometry y="234" width="140" height="26" as="geometry" />
        </mxCell>
        <mxCell id="yhIjPl4MzL__0r8o4i5A-4" value="studentId : int" style="text;strokeColor=none;fillColor=none;align=left;verticalAlign=top;spacingLeft=4;spacingRight=4;overflow=hidden;rotatable=0;points=[[0,0.5],[1,0.5]];portConstraint=eastwest;labelBackgroundColor=#FF0000;fontStyle=4" parent="DZclujw8_2qOo26mX_MC-94" vertex="1">
          <mxGeometry y="260" width="140" height="26" as="geometry" />
        </mxCell>
        <mxCell id="yhIjPl4MzL__0r8o4i5A-5" value="parentId : int" style="text;strokeColor=none;fillColor=none;align=left;verticalAlign=top;spacingLeft=4;spacingRight=4;overflow=hidden;rotatable=0;points=[[0,0.5],[1,0.5]];portConstraint=eastwest;labelBackgroundColor=#FF0000;fontStyle=4" parent="DZclujw8_2qOo26mX_MC-94" vertex="1">
          <mxGeometry y="286" width="140" height="26" as="geometry" />
        </mxCell>
        <mxCell id="DZclujw8_2qOo26mX_MC-103" style="edgeStyle=orthogonalEdgeStyle;rounded=0;orthogonalLoop=1;jettySize=auto;html=1;entryX=0;entryY=0.5;entryDx=0;entryDy=0;fontColor=#FFFCFA;" parent="1" source="DZclujw8_2qOo26mX_MC-85" target="DZclujw8_2qOo26mX_MC-98" edge="1">
          <mxGeometry relative="1" as="geometry" />
        </mxCell>
        <mxCell id="DZclujw8_2qOo26mX_MC-111" style="edgeStyle=orthogonalEdgeStyle;rounded=0;orthogonalLoop=1;jettySize=auto;html=1;entryX=0.443;entryY=-0.001;entryDx=0;entryDy=0;entryPerimeter=0;fontColor=#FFFCFA;" parent="1" source="VQvP7sinkjEN94FzhtHF-32" target="DZclujw8_2qOo26mX_MC-94" edge="1">
          <mxGeometry relative="1" as="geometry" />
        </mxCell>
        <mxCell id="DZclujw8_2qOo26mX_MC-116" style="edgeStyle=orthogonalEdgeStyle;rounded=0;orthogonalLoop=1;jettySize=auto;html=1;entryX=0.956;entryY=0.054;entryDx=0;entryDy=0;entryPerimeter=0;fontColor=#FFFCFA;" parent="1" source="DZclujw8_2qOo26mX_MC-64" target="DZclujw8_2qOo26mX_MC-97" edge="1">
          <mxGeometry relative="1" as="geometry" />
        </mxCell>
        <mxCell id="yhIjPl4MzL__0r8o4i5A-6" style="edgeStyle=orthogonalEdgeStyle;rounded=0;orthogonalLoop=1;jettySize=auto;html=1;entryX=0.5;entryY=0;entryDx=0;entryDy=0;" parent="1" source="DZclujw8_2qOo26mX_MC-92" target="DZclujw8_2qOo26mX_MC-76" edge="1">
          <mxGeometry relative="1" as="geometry" />
        </mxCell>
        <mxCell id="yhIjPl4MzL__0r8o4i5A-28" style="edgeStyle=orthogonalEdgeStyle;rounded=0;orthogonalLoop=1;jettySize=auto;html=1;entryX=1;entryY=0.5;entryDx=0;entryDy=0;" parent="1" source="yhIjPl4MzL__0r8o4i5A-13" target="DZclujw8_2qOo26mX_MC-55" edge="1">
          <mxGeometry relative="1" as="geometry">
            <Array as="points">
              <mxPoint x="1540" y="-10" />
              <mxPoint x="1080" y="-10" />
            </Array>
          </mxGeometry>
        </mxCell>
        <mxCell id="yhIjPl4MzL__0r8o4i5A-13" value="educator" style="swimlane;fontStyle=0;childLayout=stackLayout;horizontal=1;startSize=26;fillColor=#d5e8d4;horizontalStack=0;resizeParent=1;resizeParentMax=0;resizeLast=0;collapsible=1;marginBottom=0;strokeColor=#82b366;" parent="1" vertex="1">
          <mxGeometry x="1470" y="1500" width="140" height="286" as="geometry" />
        </mxCell>
        <mxCell id="yhIjPl4MzL__0r8o4i5A-14" value="educatorId : int" style="text;strokeColor=none;fillColor=none;align=left;verticalAlign=top;spacingLeft=4;spacingRight=4;overflow=hidden;rotatable=0;points=[[0,0.5],[1,0.5]];portConstraint=eastwest;labelBackgroundColor=#00FF00;" parent="yhIjPl4MzL__0r8o4i5A-13" vertex="1">
          <mxGeometry y="26" width="140" height="26" as="geometry" />
        </mxCell>
        <mxCell id="yhIjPl4MzL__0r8o4i5A-15" value="educatorName : varchar" style="text;strokeColor=none;fillColor=none;align=left;verticalAlign=top;spacingLeft=4;spacingRight=4;overflow=hidden;rotatable=0;points=[[0,0.5],[1,0.5]];portConstraint=eastwest;" parent="yhIjPl4MzL__0r8o4i5A-13" vertex="1">
          <mxGeometry y="52" width="140" height="26" as="geometry" />
        </mxCell>
        <mxCell id="yhIjPl4MzL__0r8o4i5A-16" value="educatorFirstName : varchar" style="text;strokeColor=none;fillColor=none;align=left;verticalAlign=top;spacingLeft=4;spacingRight=4;overflow=hidden;rotatable=0;points=[[0,0.5],[1,0.5]];portConstraint=eastwest;" parent="yhIjPl4MzL__0r8o4i5A-13" vertex="1">
          <mxGeometry y="78" width="140" height="26" as="geometry" />
        </mxCell>
        <mxCell id="yhIjPl4MzL__0r8o4i5A-17" value="educatorEmail : varchar" style="text;strokeColor=none;fillColor=none;align=left;verticalAlign=top;spacingLeft=4;spacingRight=4;overflow=hidden;rotatable=0;points=[[0,0.5],[1,0.5]];portConstraint=eastwest;" parent="yhIjPl4MzL__0r8o4i5A-13" vertex="1">
          <mxGeometry y="104" width="140" height="26" as="geometry" />
        </mxCell>
        <mxCell id="yhIjPl4MzL__0r8o4i5A-18" value="educatorPassword : varchar" style="text;strokeColor=none;fillColor=none;align=left;verticalAlign=top;spacingLeft=4;spacingRight=4;overflow=hidden;rotatable=0;points=[[0,0.5],[1,0.5]];portConstraint=eastwest;" parent="yhIjPl4MzL__0r8o4i5A-13" vertex="1">
          <mxGeometry y="130" width="140" height="26" as="geometry" />
        </mxCell>
        <mxCell id="yhIjPl4MzL__0r8o4i5A-19" value="educatorAdress : varchar" style="text;strokeColor=none;fillColor=none;align=left;verticalAlign=top;spacingLeft=4;spacingRight=4;overflow=hidden;rotatable=0;points=[[0,0.5],[1,0.5]];portConstraint=eastwest;" parent="yhIjPl4MzL__0r8o4i5A-13" vertex="1">
          <mxGeometry y="156" width="140" height="26" as="geometry" />
        </mxCell>
        <mxCell id="yhIjPl4MzL__0r8o4i5A-20" value="educatorPostalCode : varchar" style="text;strokeColor=none;fillColor=none;align=left;verticalAlign=top;spacingLeft=4;spacingRight=4;overflow=hidden;rotatable=0;points=[[0,0.5],[1,0.5]];portConstraint=eastwest;" parent="yhIjPl4MzL__0r8o4i5A-13" vertex="1">
          <mxGeometry y="182" width="140" height="26" as="geometry" />
        </mxCell>
        <mxCell id="yhIjPl4MzL__0r8o4i5A-21" value="educatorPhoneNumber : varchar" style="text;strokeColor=none;fillColor=none;align=left;verticalAlign=top;spacingLeft=4;spacingRight=4;overflow=hidden;rotatable=0;points=[[0,0.5],[1,0.5]];portConstraint=eastwest;" parent="yhIjPl4MzL__0r8o4i5A-13" vertex="1">
          <mxGeometry y="208" width="140" height="26" as="geometry" />
        </mxCell>
        <mxCell id="yhIjPl4MzL__0r8o4i5A-22" value="educatorBirthDate : DateTime" style="text;strokeColor=none;fillColor=none;align=left;verticalAlign=top;spacingLeft=4;spacingRight=4;overflow=hidden;rotatable=0;points=[[0,0.5],[1,0.5]];portConstraint=eastwest;" parent="yhIjPl4MzL__0r8o4i5A-13" vertex="1">
          <mxGeometry y="234" width="140" height="26" as="geometry" />
        </mxCell>
        <mxCell id="yhIjPl4MzL__0r8o4i5A-24" value="educatorFunction : varcharÂ " style="text;strokeColor=none;fillColor=none;align=left;verticalAlign=top;spacingLeft=4;spacingRight=4;overflow=hidden;rotatable=0;points=[[0,0.5],[1,0.5]];portConstraint=eastwest;" parent="yhIjPl4MzL__0r8o4i5A-13" vertex="1">
          <mxGeometry y="260" width="140" height="26" as="geometry" />
        </mxCell>
        <mxCell id="yhIjPl4MzL__0r8o4i5A-26" style="edgeStyle=orthogonalEdgeStyle;rounded=0;orthogonalLoop=1;jettySize=auto;html=1;exitX=0;exitY=0.5;exitDx=0;exitDy=0;" parent="1" source="yhIjPl4MzL__0r8o4i5A-14" target="DZclujw8_2qOo26mX_MC-78" edge="1">
          <mxGeometry relative="1" as="geometry" />
        </mxCell>
        <mxCell id="KSrHdFm3aGdtv8jrWFfG-12" style="edgeStyle=orthogonalEdgeStyle;rounded=0;orthogonalLoop=1;jettySize=auto;html=1;" parent="1" source="KSrHdFm3aGdtv8jrWFfG-1" target="VQvP7sinkjEN94FzhtHF-28" edge="1">
          <mxGeometry relative="1" as="geometry">
            <Array as="points">
              <mxPoint x="1170" y="900" />
              <mxPoint x="740" y="900" />
            </Array>
          </mxGeometry>
        </mxCell>
        <mxCell id="KSrHdFm3aGdtv8jrWFfG-1" value="retard" style="swimlane;fontStyle=0;childLayout=stackLayout;horizontal=1;startSize=26;fillColor=#d5e8d4;horizontalStack=0;resizeParent=1;resizeParentMax=0;resizeLast=0;collapsible=1;marginBottom=0;labelBackgroundColor=none;strokeColor=#82b366;" parent="1" vertex="1">
          <mxGeometry x="1101" y="1740" width="140" height="208" as="geometry" />
        </mxCell>
        <mxCell id="KSrHdFm3aGdtv8jrWFfG-2" value="retardId : int" style="text;strokeColor=none;fillColor=none;align=left;verticalAlign=top;spacingLeft=4;spacingRight=4;overflow=hidden;rotatable=0;points=[[0,0.5],[1,0.5]];portConstraint=eastwest;fontStyle=4;labelBackgroundColor=#00FF00;" parent="KSrHdFm3aGdtv8jrWFfG-1" vertex="1">
          <mxGeometry y="26" width="140" height="26" as="geometry" />
        </mxCell>
        <mxCell id="KSrHdFm3aGdtv8jrWFfG-3" value="retardType : varchar" style="text;strokeColor=none;fillColor=none;align=left;verticalAlign=top;spacingLeft=4;spacingRight=4;overflow=hidden;rotatable=0;points=[[0,0.5],[1,0.5]];portConstraint=eastwest;" parent="KSrHdFm3aGdtv8jrWFfG-1" vertex="1">
          <mxGeometry y="52" width="140" height="26" as="geometry" />
        </mxCell>
        <mxCell id="KSrHdFm3aGdtv8jrWFfG-4" value="retardCause : varchar" style="text;strokeColor=none;fillColor=none;align=left;verticalAlign=top;spacingLeft=4;spacingRight=4;overflow=hidden;rotatable=0;points=[[0,0.5],[1,0.5]];portConstraint=eastwest;" parent="KSrHdFm3aGdtv8jrWFfG-1" vertex="1">
          <mxGeometry y="78" width="140" height="26" as="geometry" />
        </mxCell>
        <mxCell id="KSrHdFm3aGdtv8jrWFfG-5" value="retardSignature : varchar" style="text;strokeColor=none;fillColor=none;align=left;verticalAlign=top;spacingLeft=4;spacingRight=4;overflow=hidden;rotatable=0;points=[[0,0.5],[1,0.5]];portConstraint=eastwest;" parent="KSrHdFm3aGdtv8jrWFfG-1" vertex="1">
          <mxGeometry y="104" width="140" height="26" as="geometry" />
        </mxCell>
        <mxCell id="KSrHdFm3aGdtv8jrWFfG-25" value="retardDate : DateTime" style="text;strokeColor=none;fillColor=none;align=left;verticalAlign=top;spacingLeft=4;spacingRight=4;overflow=hidden;rotatable=0;points=[[0,0.5],[1,0.5]];portConstraint=eastwest;" parent="KSrHdFm3aGdtv8jrWFfG-1" vertex="1">
          <mxGeometry y="130" width="140" height="26" as="geometry" />
        </mxCell>
        <mxCell id="KSrHdFm3aGdtv8jrWFfG-31" value="educatorId : int" style="text;strokeColor=none;fillColor=none;align=left;verticalAlign=top;spacingLeft=4;spacingRight=4;overflow=hidden;rotatable=0;points=[[0,0.5],[1,0.5]];portConstraint=eastwest;labelBackgroundColor=#FF0A0A;" parent="KSrHdFm3aGdtv8jrWFfG-1" vertex="1">
          <mxGeometry y="156" width="140" height="26" as="geometry" />
        </mxCell>
        <mxCell id="KSrHdFm3aGdtv8jrWFfG-18" value="studentId : int" style="text;strokeColor=none;fillColor=none;align=left;verticalAlign=top;spacingLeft=4;spacingRight=4;overflow=hidden;rotatable=0;points=[[0,0.5],[1,0.5]];portConstraint=eastwest;labelBackgroundColor=#FF0A0A;fontStyle=4" parent="KSrHdFm3aGdtv8jrWFfG-1" vertex="1">
          <mxGeometry y="182" width="140" height="26" as="geometry" />
        </mxCell>
        <mxCell id="KSrHdFm3aGdtv8jrWFfG-8" style="edgeStyle=orthogonalEdgeStyle;rounded=0;orthogonalLoop=1;jettySize=auto;html=1;entryX=0;entryY=0.5;entryDx=0;entryDy=0;" parent="1" source="KSrHdFm3aGdtv8jrWFfG-2" target="yhIjPl4MzL__0r8o4i5A-16" edge="1">
          <mxGeometry relative="1" as="geometry" />
        </mxCell>
        <mxCell id="KSrHdFm3aGdtv8jrWFfG-37" style="edgeStyle=orthogonalEdgeStyle;rounded=0;orthogonalLoop=1;jettySize=auto;html=1;entryX=1.007;entryY=0.846;entryDx=0;entryDy=0;entryPerimeter=0;fontColor=default;" parent="1" source="KSrHdFm3aGdtv8jrWFfG-19" target="DZclujw8_2qOo26mX_MC-7" edge="1">
          <mxGeometry relative="1" as="geometry" />
        </mxCell>
        <mxCell id="KSrHdFm3aGdtv8jrWFfG-19" value="absence" style="swimlane;fontStyle=0;childLayout=stackLayout;horizontal=1;startSize=26;fillColor=#d5e8d4;horizontalStack=0;resizeParent=1;resizeParentMax=0;resizeLast=0;collapsible=1;marginBottom=0;labelBackgroundColor=none;strokeColor=#82b366;" parent="1" vertex="1">
          <mxGeometry x="710" y="1830" width="140" height="234" as="geometry" />
        </mxCell>
        <mxCell id="KSrHdFm3aGdtv8jrWFfG-20" value="absenceId : int" style="text;strokeColor=none;fillColor=none;align=left;verticalAlign=top;spacingLeft=4;spacingRight=4;overflow=hidden;rotatable=0;points=[[0,0.5],[1,0.5]];portConstraint=eastwest;fontStyle=4;labelBackgroundColor=#00FF00;" parent="KSrHdFm3aGdtv8jrWFfG-19" vertex="1">
          <mxGeometry y="26" width="140" height="26" as="geometry" />
        </mxCell>
        <mxCell id="KSrHdFm3aGdtv8jrWFfG-21" value="absenceType : varchar" style="text;strokeColor=none;fillColor=none;align=left;verticalAlign=top;spacingLeft=4;spacingRight=4;overflow=hidden;rotatable=0;points=[[0,0.5],[1,0.5]];portConstraint=eastwest;" parent="KSrHdFm3aGdtv8jrWFfG-19" vertex="1">
          <mxGeometry y="52" width="140" height="26" as="geometry" />
        </mxCell>
        <mxCell id="KSrHdFm3aGdtv8jrWFfG-22" value="absenceCause : varchar" style="text;strokeColor=none;fillColor=none;align=left;verticalAlign=top;spacingLeft=4;spacingRight=4;overflow=hidden;rotatable=0;points=[[0,0.5],[1,0.5]];portConstraint=eastwest;" parent="KSrHdFm3aGdtv8jrWFfG-19" vertex="1">
          <mxGeometry y="78" width="140" height="26" as="geometry" />
        </mxCell>
        <mxCell id="KSrHdFm3aGdtv8jrWFfG-23" value="absenceSignature : varchar" style="text;strokeColor=none;fillColor=none;align=left;verticalAlign=top;spacingLeft=4;spacingRight=4;overflow=hidden;rotatable=0;points=[[0,0.5],[1,0.5]];portConstraint=eastwest;" parent="KSrHdFm3aGdtv8jrWFfG-19" vertex="1">
          <mxGeometry y="104" width="140" height="26" as="geometry" />
        </mxCell>
        <mxCell id="KSrHdFm3aGdtv8jrWFfG-26" value="absenceDateDebut : DateTime" style="text;strokeColor=none;fillColor=none;align=left;verticalAlign=top;spacingLeft=4;spacingRight=4;overflow=hidden;rotatable=0;points=[[0,0.5],[1,0.5]];portConstraint=eastwest;" parent="KSrHdFm3aGdtv8jrWFfG-19" vertex="1">
          <mxGeometry y="130" width="140" height="26" as="geometry" />
        </mxCell>
        <mxCell id="KSrHdFm3aGdtv8jrWFfG-27" value="absenceDateFin : DateTime" style="text;strokeColor=none;fillColor=none;align=left;verticalAlign=top;spacingLeft=4;spacingRight=4;overflow=hidden;rotatable=0;points=[[0,0.5],[1,0.5]];portConstraint=eastwest;" parent="KSrHdFm3aGdtv8jrWFfG-19" vertex="1">
          <mxGeometry y="156" width="140" height="26" as="geometry" />
        </mxCell>
        <mxCell id="KSrHdFm3aGdtv8jrWFfG-24" value="studentId : int" style="text;strokeColor=none;fillColor=none;align=left;verticalAlign=top;spacingLeft=4;spacingRight=4;overflow=hidden;rotatable=0;points=[[0,0.5],[1,0.5]];portConstraint=eastwest;labelBackgroundColor=#FF0A0A;fontStyle=4" parent="KSrHdFm3aGdtv8jrWFfG-19" vertex="1">
          <mxGeometry y="182" width="140" height="26" as="geometry" />
        </mxCell>
        <mxCell id="KSrHdFm3aGdtv8jrWFfG-35" value="educatorId : int" style="text;strokeColor=none;fillColor=none;align=left;verticalAlign=top;spacingLeft=4;spacingRight=4;overflow=hidden;rotatable=0;points=[[0,0.5],[1,0.5]];portConstraint=eastwest;labelBackgroundColor=#FF0A0A;fontColor=default;" parent="KSrHdFm3aGdtv8jrWFfG-19" vertex="1">
          <mxGeometry y="208" width="140" height="26" as="geometry" />
        </mxCell>
        <mxCell id="KSrHdFm3aGdtv8jrWFfG-29" style="edgeStyle=orthogonalEdgeStyle;rounded=0;orthogonalLoop=1;jettySize=auto;html=1;entryX=1;entryY=0.5;entryDx=0;entryDy=0;" parent="1" source="KSrHdFm3aGdtv8jrWFfG-24" target="yhIjPl4MzL__0r8o4i5A-24" edge="1">
          <mxGeometry relative="1" as="geometry">
            <mxPoint x="1577.5199999999995" y="1838.13" as="targetPoint" />
          </mxGeometry>
        </mxCell>
        <mxCell id="ENMm6VcqytKsvSAyXC8p-1" style="edgeStyle=orthogonalEdgeStyle;rounded=0;orthogonalLoop=1;jettySize=auto;html=1;entryX=0.805;entryY=1.029;entryDx=0;entryDy=0;entryPerimeter=0;" parent="1" source="VQvP7sinkjEN94FzhtHF-14" target="RjdmhweyoWYZN-WOX6py-2" edge="1">
          <mxGeometry relative="1" as="geometry" />
        </mxCell>
        <mxCell id="oRrgnXEUFNpz4oT3yKMa-2" style="edgeStyle=orthogonalEdgeStyle;rounded=0;orthogonalLoop=1;jettySize=auto;html=1;exitX=0.5;exitY=1;exitDx=0;exitDy=0;" edge="1" parent="1">
          <mxGeometry relative="1" as="geometry">
            <mxPoint x="530" y="178" as="sourcePoint" />
            <mxPoint x="530" y="178" as="targetPoint" />
          </mxGeometry>
        </mxCell>
      </root>
    </mxGraphModel>
  </diagram>
</mxfile>
